<svg width="19" height="19" viewBox="0 0 19 19" fill="none" xmlns="http://www.w3.org/2000/svg">
<path d="M1.9 2.11492V15.834C1.9 16.4175 2.3248 16.8851 2.85 16.8894H13.4622C13.3541 16.5505 13.3 16.1944 13.3 15.834V2.11492H1.9ZM15.2 10.5575V15.834C15.2 16.4175 15.6248 16.8894 16.15 16.8894C16.6752 16.8894 17.1 16.4175 17.1 15.834V10.5575H15.2ZM16.15 19H2.85C1.27439 19 0 17.5843 0 15.834V1.05532C0 0.47189 0.424797 0 0.95 0H14.25C14.7752 0 15.2 0.47189 15.2 1.05532V8.44254H18.05C18.5752 8.44254 19 8.91443 19 9.49785V15.8298C19 17.58 17.7256 19 16.15 19Z" fill="white"/>
<path d="M11.4 6.33188H3.79998V4.22125H11.4V6.33188ZM11.4 10.5574H3.79998V8.44681H11.4V10.5574ZM11.4 14.7744H8.54998V12.6638H11.4V14.7744Z" fill="white"/>
</svg>
