<svg width="19" height="19" viewBox="0 0 19 19" fill="none" xmlns="http://www.w3.org/2000/svg">
<path d="M6.33334 10.453H4.22222V8.54368H6.33334V10.453ZM10.5556 10.453H8.44445V8.54368H10.5556V10.453ZM14.7778 10.453H12.6667V8.54368H14.7778V10.453ZM6.33334 14.2583H4.22222V12.349H6.33334V14.2583ZM10.5556 14.2583H8.44445V12.349H10.5556V14.2583ZM14.7778 14.2583H12.6667V12.349H14.7778V14.2583Z" fill="white"/>
<path d="M2.11111 5.698V17.1073H16.8889V5.698H2.11111ZM16.8889 19H2.11111C0.944444 19 0 18.1503 0 17.1073V3.802C0 2.75903 0.944444 1.90933 2.11111 1.90933H4.22222V0H6.33333V1.90933H12.6667V0H14.7778V1.90933H16.8889C18.0556 1.90933 18.9963 2.75903 19 3.802V17.1073C19 18.1503 18.0556 19 16.8889 19Z" fill="white"/>
</svg>
