<svg width="19" height="17" viewBox="0 0 19 17" fill="none" xmlns="http://www.w3.org/2000/svg">
<path d="M17.9394 9.4875C18.5002 9.4875 18.995 9.05 18.995 8.48438C19.028 8.20313 18.8961 7.95313 18.6321 7.73438L16.8903 6.28125V2.5C16.8903 1.94687 16.4186 1.5 15.8347 1.5H14.779C14.1951 1.5 13.7234 1.94687 13.7234 2.5V3.64687L10.2101 0.71875C10.0121 0.5625 9.74823 0.5 9.5173 0.5C9.28638 0.5 9.02247 0.53125 8.79155 0.75L0.329889 7.73438C0.0989668 7.95313 0 8.20313 0 8.48438C0 9.04688 0.461845 9.4875 1.05565 9.4875H2.11129V11.6656C2.10799 11.6937 2.10799 11.7219 2.10799 11.7531V15.25C2.10799 15.9406 2.69849 16.5 3.42755 16.5H3.95537C3.99496 16.5 4.03454 16.4969 4.07413 16.4937C4.12361 16.4969 4.1731 16.5 4.22258 16.5H6.06996C6.79902 16.5 7.38952 15.9406 7.38952 15.25V12.5C7.38952 11.9469 7.86126 11.5 8.44516 11.5H10.5565C11.1404 11.5 11.6121 11.9469 11.6121 12.5V15.25C11.6121 15.9406 12.2026 16.5 12.9317 16.5H14.7955C14.8417 16.5 14.8879 16.5 14.9341 16.4969C14.9704 16.5 15.0067 16.5 15.0429 16.5H15.5708C16.2998 16.5 16.8903 15.9406 16.8903 15.25V14.7437C16.9002 14.6625 16.9068 14.5781 16.9068 14.4906L16.8837 9.48438H17.9394V9.4875Z" fill="white"/>
</svg>
