<svg width="13" height="13" viewBox="0 0 13 13" fill="none" xmlns="http://www.w3.org/2000/svg">
<path d="M11.6787 6.84048C11.6787 9.94353 9.32745 12.4171 6.47714 12.4171C3.62684 12.4171 1.27558 9.94353 1.27558 6.84048C1.27558 3.73742 3.62684 1.26386 6.47714 1.26386C9.32745 1.26386 11.6787 3.73742 11.6787 6.84048Z" fill="#1B8278" fill-opacity="0.06" stroke="#0EBE7F" stroke-width="0.743548"/>
<path d="M3.71408 5.00038L3.86701 4.91768L3.71408 5.00038Z" fill="#1B8278" stroke="#0EBE7F" stroke-width="0.743548"/>
<mask id="path-3-inside-1_4703_445" fill="white">
<path d="M6.38313 8.99388C6.42997 8.99388 6.47488 8.97401 6.50801 8.9387C6.54114 8.90334 6.55971 8.8554 6.55971 8.80541V5.73098C6.55971 5.66362 6.52608 5.60141 6.47144 5.56776C6.4168 5.53406 6.34946 5.53406 6.29482 5.56776C6.24018 5.60141 6.20654 5.66362 6.20654 5.73098V8.80541C6.20654 8.8554 6.22512 8.90334 6.25825 8.9387C6.29138 8.97401 6.33629 8.99388 6.38313 8.99388H6.38313Z"/>
</mask>
<path d="M6.38313 8.99388C6.42997 8.99388 6.47488 8.97401 6.50801 8.9387C6.54114 8.90334 6.55971 8.8554 6.55971 8.80541V5.73098C6.55971 5.66362 6.52608 5.60141 6.47144 5.56776C6.4168 5.53406 6.34946 5.53406 6.29482 5.56776C6.24018 5.60141 6.20654 5.66362 6.20654 5.73098V8.80541C6.20654 8.8554 6.22512 8.90334 6.25825 8.9387C6.29138 8.97401 6.33629 8.99388 6.38313 8.99388H6.38313Z" fill="#1B8278"/>
<path d="M6.50801 8.9387L7.05027 9.44744L7.0506 9.44708L6.50801 8.9387ZM6.47144 5.56776L6.08111 6.20061L6.08153 6.20087L6.47144 5.56776ZM6.29482 5.56776L6.68478 6.20084L6.68514 6.20062L6.29482 5.56776ZM6.25825 8.9387L5.71564 9.44706L5.71597 9.44742L6.25825 8.9387ZM6.38313 9.73743C6.64351 9.73743 6.88223 9.62654 7.05027 9.44744L5.96575 8.42995C6.06752 8.32147 6.21642 8.25033 6.38313 8.25033V9.73743ZM7.0506 9.44708C7.21751 9.26894 7.30326 9.03729 7.30326 8.80541H5.81617C5.81617 8.67352 5.86476 8.53773 5.96541 8.43031L7.0506 9.44708ZM7.30326 8.80541V5.73098H5.81617V8.80541H7.30326ZM7.30326 5.73098C7.30326 5.42126 7.14885 5.1117 6.86135 4.93464L6.08153 6.20087C5.90331 6.09111 5.81617 5.90599 5.81617 5.73098H7.30326ZM6.86178 4.9349C6.56784 4.7536 6.19842 4.75361 5.90449 4.9349L6.68514 6.20062C6.5005 6.3145 6.26577 6.31451 6.08111 6.20061L6.86178 4.9349ZM5.90485 4.93467C5.61744 5.11172 5.46299 5.42121 5.46299 5.73098H6.95009C6.95009 5.90604 6.86292 6.09111 6.68478 6.20084L5.90485 4.93467ZM5.46299 5.73098V8.80541H6.95009V5.73098H5.46299ZM5.46299 8.80541C5.46299 9.0373 5.54875 9.26894 5.71564 9.44706L6.80086 8.43033C6.90149 8.53774 6.95009 8.6735 6.95009 8.80541H5.46299ZM5.71597 9.44742C5.88402 9.62655 6.12275 9.73743 6.38313 9.73743V8.25033C6.54983 8.25033 6.69873 8.32147 6.80052 8.42997L5.71597 9.44742ZM6.38313 8.25033H6.38313V9.73743H6.38313V8.25033Z" fill="#0EBE7F" mask="url(#path-3-inside-1_4703_445)"/>
<mask id="path-5-inside-2_4703_445" fill="white">
<path d="M5.68795 8.99245H5.69546C5.74209 8.99039 5.78604 8.96869 5.81774 8.93212C5.8494 8.89556 5.86626 8.84708 5.86454 8.79731L5.75807 5.72288L5.75811 5.72284C5.75715 5.67249 5.73698 5.62469 5.70221 5.59058C5.66741 5.55652 5.62111 5.53911 5.57398 5.54238C5.52735 5.54449 5.4834 5.56619 5.45174 5.60276C5.42004 5.63932 5.40322 5.68779 5.4049 5.73757L5.51137 8.812C5.51359 8.86047 5.53313 8.90621 5.56601 8.93977C5.59885 8.97329 5.6425 8.99218 5.68795 8.99245L5.68795 8.99245Z"/>
</mask>
<path d="M5.68795 8.99245H5.69546C5.74209 8.99039 5.78604 8.96869 5.81774 8.93212C5.8494 8.89556 5.86626 8.84708 5.86454 8.79731L5.75807 5.72288L5.75811 5.72284C5.75715 5.67249 5.73698 5.62469 5.70221 5.59058C5.66741 5.55652 5.62111 5.53911 5.57398 5.54238C5.52735 5.54449 5.4834 5.56619 5.45174 5.60276C5.42004 5.63932 5.40322 5.68779 5.4049 5.73757L5.51137 8.812C5.51359 8.86047 5.53313 8.90621 5.56601 8.93977C5.59885 8.97329 5.6425 8.99218 5.68795 8.99245L5.68795 8.99245Z" fill="#1B8278"/>
<path d="M5.68795 8.99245L4.94765 8.92309L4.87148 9.736H5.68795V8.99245ZM5.69546 8.99245V9.736H5.71186L5.72826 9.73528L5.69546 8.99245ZM5.81774 8.93212L6.37951 9.41923L6.37986 9.41883L5.81774 8.93212ZM5.86454 8.79731L6.60765 8.77165L6.60765 8.77158L5.86454 8.79731ZM5.75807 5.72288L5.21548 5.2145L5.00428 5.43991L5.01497 5.74862L5.75807 5.72288ZM5.75811 5.72284L6.30071 6.23122L6.50731 6.01072L6.50152 5.7086L5.75811 5.72284ZM5.70221 5.59058L6.22294 5.05982L6.22226 5.05915L5.70221 5.59058ZM5.57398 5.54238L5.60749 6.28517L5.61646 6.28477L5.62541 6.28415L5.57398 5.54238ZM5.45174 5.60276L6.01354 6.08983L6.01384 6.08949L5.45174 5.60276ZM5.4049 5.73757L4.66177 5.7626L4.6618 5.7633L5.4049 5.73757ZM5.51137 8.812L4.76822 8.83773L4.7686 8.84605L5.51137 8.812ZM5.56601 8.93977L6.0972 8.41948L6.09718 8.41946L5.56601 8.93977ZM5.68795 8.99245L6.42826 9.06181L6.50397 8.25372L5.69236 8.24891L5.68795 8.99245ZM5.68795 9.736H5.69546V8.2489H5.68795V9.736ZM5.72826 9.73528C5.98755 9.72383 6.21989 9.60332 6.37951 9.41923L5.25597 8.44501C5.35219 8.33405 5.49663 8.25696 5.66266 8.24963L5.72826 9.73528ZM6.37986 9.41883C6.53798 9.23621 6.61565 9.00328 6.60765 8.77165L5.12144 8.82297C5.11688 8.69088 5.16082 8.5549 5.25562 8.44541L6.37986 9.41883ZM6.60765 8.77158L6.50117 5.69715L5.01497 5.74862L5.12144 8.82305L6.60765 8.77158ZM6.30067 6.23127L6.30071 6.23122L5.21552 5.21446L5.21548 5.2145L6.30067 6.23127ZM6.50152 5.7086C6.49698 5.47146 6.40225 5.23574 6.22294 5.05982L5.18149 6.12135C5.07171 6.01364 5.01731 5.87351 5.0147 5.73708L6.50152 5.7086ZM6.22226 5.05915C6.04114 4.88192 5.78891 4.78215 5.52255 4.80061L5.62541 6.28415C5.45331 6.29608 5.29368 6.23113 5.18217 6.12201L6.22226 5.05915ZM5.54048 4.79959C5.28179 4.81126 5.04944 4.93149 4.88964 5.11602L6.01384 6.08949C5.91737 6.2009 5.77291 6.27771 5.60749 6.28517L5.54048 4.79959ZM4.88994 5.11568C4.7312 5.29878 4.654 5.53182 4.66177 5.7626L6.14803 5.71253C6.15245 5.84377 6.10888 5.97987 6.01354 6.08983L4.88994 5.11568ZM4.6618 5.7633L4.76827 8.83773L6.25447 8.78626L6.148 5.71183L4.6618 5.7633ZM4.7686 8.84605C4.77888 9.07021 4.86932 9.2911 5.03484 9.46008L6.09718 8.41946C6.19695 8.52131 6.24831 8.65072 6.25414 8.77794L4.7686 8.84605ZM5.03482 9.46006C5.20107 9.6298 5.43221 9.7345 5.68355 9.73599L5.69236 8.24891C5.85279 8.24986 5.99662 8.31679 6.0972 8.41948L5.03482 9.46006ZM4.94765 8.92309L4.94765 8.92309L6.42826 9.06182L6.42826 9.06181L4.94765 8.92309Z" fill="#0EBE7F" mask="url(#path-5-inside-2_4703_445)"/>
<mask id="path-7-inside-3_4703_445" fill="white">
<path d="M7.07145 8.99241H7.07769C7.12424 8.99353 7.16932 8.97509 7.20328 8.94112C7.23721 8.90711 7.25734 8.86025 7.25931 8.81061L7.36578 5.73618H7.36574C7.36746 5.68641 7.3506 5.63794 7.31894 5.60137C7.28724 5.56481 7.24329 5.5431 7.19666 5.541C7.14898 5.53576 7.10142 5.55218 7.06565 5.58629C7.02988 5.62035 7.00925 5.66895 7.00879 5.72016L6.90106 8.79459H6.9011C6.89871 8.84503 6.9154 8.89439 6.94744 8.93159C6.97944 8.96878 7.02414 8.99071 7.07144 8.99241L7.07145 8.99241Z"/>
</mask>
<path d="M7.07145 8.99241H7.07769C7.12424 8.99353 7.16932 8.97509 7.20328 8.94112C7.23721 8.90711 7.25734 8.86025 7.25931 8.81061L7.36578 5.73618H7.36574C7.36746 5.68641 7.3506 5.63794 7.31894 5.60137C7.28724 5.56481 7.24329 5.5431 7.19666 5.541C7.14898 5.53576 7.10142 5.55218 7.06565 5.58629C7.02988 5.62035 7.00925 5.66895 7.00879 5.72016L6.90106 8.79459H6.9011C6.89871 8.84503 6.9154 8.89439 6.94744 8.93159C6.97944 8.96878 7.02414 8.99071 7.07144 8.99241L7.07145 8.99241Z" fill="#1B8278"/>
<path d="M7.07145 8.99241L6.34245 9.13878L6.46234 9.73596H7.07145V8.99241ZM7.07769 8.99241L7.09556 8.24908L7.08663 8.24887H7.07769V8.99241ZM7.20328 8.94112L7.7291 9.46684L7.72975 9.46619L7.20328 8.94112ZM7.25931 8.81061L8.00228 8.84011L8.00241 8.83634L7.25931 8.81061ZM7.36578 5.73618L8.10888 5.76192L8.13553 4.99263H7.36578V5.73618ZM7.36574 5.73618L6.62263 5.71051L6.59606 6.47973H7.36574V5.73618ZM7.31894 5.60137L7.88109 5.1147L7.88074 5.1143L7.31894 5.60137ZM7.19666 5.541L7.11548 6.2801L7.13926 6.28271L7.16315 6.28379L7.19666 5.541ZM7.06565 5.58629L7.5784 6.12477L7.57875 6.12443L7.06565 5.58629ZM7.00879 5.72016L7.75188 5.7462L7.75222 5.73653L7.75231 5.72686L7.00879 5.72016ZM6.90106 8.79459L6.15797 8.76855L6.131 9.53814H6.90106V8.79459ZM6.9011 8.79459L7.64382 8.82978L7.68072 8.05104H6.9011V8.79459ZM6.94744 8.93159L7.51111 8.44667L7.5108 8.44631L6.94744 8.93159ZM7.07144 8.99241L7.80044 8.84605L7.68488 8.27043L7.09815 8.24934L7.07144 8.99241ZM7.07145 9.73596H7.07769V8.24887H7.07145V9.73596ZM7.05983 9.73575C7.31738 9.74194 7.5568 9.63918 7.7291 9.46684L6.67747 8.41541C6.78184 8.31101 6.93111 8.24513 7.09556 8.24908L7.05983 9.73575ZM7.72975 9.46619C7.90021 9.29528 7.99317 9.06946 8.00227 8.84011L6.51635 8.78111C6.52151 8.65103 6.57421 8.51893 6.67682 8.41605L7.72975 9.46619ZM8.00241 8.83634L8.10888 5.76192L6.62268 5.71045L6.51621 8.78487L8.00241 8.83634ZM7.36578 4.99263H7.36574V6.47973H7.36578V4.99263ZM8.10884 5.76185C8.11685 5.53019 8.03916 5.29729 7.88109 5.1147L6.75679 6.08804C6.66204 5.9786 6.61807 5.84264 6.62263 5.71051L8.10884 5.76185ZM7.88074 5.1143C7.72106 4.93012 7.48891 4.80987 7.23016 4.7982L7.16315 6.28379C6.99768 6.27632 6.85341 6.19949 6.75714 6.08845L7.88074 5.1143ZM7.27783 4.80189C7.00488 4.77191 6.74173 4.86777 6.55256 5.04815L7.57875 6.12443C7.46111 6.2366 7.29307 6.2996 7.11548 6.2801L7.27783 4.80189ZM6.55291 5.04781C6.36539 5.22637 6.26747 5.46959 6.26527 5.71346L7.75231 5.72686C7.75103 5.86832 7.69438 6.01433 7.5784 6.12477L6.55291 5.04781ZM6.2657 5.69412L6.15797 8.76855L7.64415 8.82063L7.75188 5.7462L6.2657 5.69412ZM6.90106 9.53814H6.9011V8.05104H6.90106V9.53814ZM6.15839 8.75939C6.14729 8.99371 6.2239 9.23091 6.38409 9.41687L7.5108 8.44631C7.60691 8.55788 7.65014 8.69634 7.64382 8.82978L6.15839 8.75939ZM6.38377 9.4165C6.54532 9.60429 6.78182 9.72603 7.04474 9.73548L7.09815 8.24934C7.26646 8.25539 7.41355 8.33327 7.51111 8.44667L6.38377 9.4165ZM6.34244 9.13877L6.34245 9.13878L7.80045 8.84605L7.80044 8.84605L6.34244 9.13877Z" fill="#0EBE7F" mask="url(#path-7-inside-3_4703_445)"/>
</svg>
