<svg width="24" height="24" viewBox="0 0 24 24" fill="none" xmlns="http://www.w3.org/2000/svg">
<g clip-path="url(#clip0_4356_278)">
<path d="M17.5874 15.6975C17.3783 15.4878 17.13 15.3213 16.8565 15.2078C16.583 15.0942 16.2898 15.0357 15.9936 15.0357C15.6975 15.0357 15.4043 15.0942 15.1308 15.2078C14.8573 15.3213 14.6089 15.4878 14.3999 15.6975L13.3124 16.785C12.0879 16.0079 10.9535 15.0973 9.92988 14.07C8.90473 13.0445 7.99436 11.9103 7.21488 10.6875L8.30238 9.60002C8.51214 9.39099 8.67857 9.14261 8.79213 8.86911C8.90569 8.59562 8.96415 8.3024 8.96415 8.00627C8.96415 7.71014 8.90569 7.41692 8.79213 7.14343C8.67857 6.86994 8.51214 6.62156 8.30238 6.41252L6.17988 4.29752C5.9738 4.08707 5.72751 3.92019 5.45565 3.80681C5.1838 3.69343 4.89192 3.63586 4.59738 3.63752C4.30074 3.6368 4.00689 3.69473 3.73272 3.808C3.45856 3.92127 3.2095 4.08764 2.99988 4.29752L1.97988 5.31002C1.49371 5.83275 1.13086 6.45778 0.918001 7.13918C0.705147 7.82057 0.647698 8.54101 0.749878 9.24752C0.989878 12.06 2.83488 15.4425 5.67738 18.2925C8.51988 21.1425 11.9399 22.98 14.7524 23.25C14.9622 23.2612 15.1725 23.2612 15.3824 23.25C15.9878 23.2754 16.5922 23.1797 17.1602 22.9685C17.7281 22.7573 18.2482 22.4348 18.6899 22.02L19.7024 21C19.9123 20.7904 20.0786 20.5413 20.1919 20.2672C20.3052 19.993 20.3631 19.6992 20.3624 19.4025C20.364 19.108 20.3065 18.8161 20.1931 18.5442C20.0797 18.2724 19.9128 18.0261 19.7024 17.82L17.5874 15.6975ZM18.6449 19.9425L17.6249 20.955C17.2477 21.2693 16.8075 21.499 16.3339 21.6284C15.8603 21.7577 15.3644 21.7839 14.8799 21.705C12.4424 21.495 9.33738 19.77 6.77238 17.205C4.20738 14.64 2.48238 11.5575 2.24988 9.12002C2.169 8.63546 2.19417 8.13912 2.32365 7.66522C2.45313 7.19132 2.68384 6.75114 2.99988 6.37502L4.05738 5.35502C4.12746 5.28551 4.21057 5.23052 4.30195 5.19319C4.39333 5.15587 4.49117 5.13695 4.58988 5.13752C4.68858 5.13695 4.78643 5.15587 4.87781 5.19319C4.96919 5.23052 5.0523 5.28551 5.12238 5.35502L7.24488 7.50002C7.38457 7.64054 7.46297 7.83063 7.46297 8.02877C7.46297 8.22691 7.38457 8.417 7.24488 8.55752L5.74488 10.0575C5.6275 10.1743 5.55208 10.3267 5.53037 10.4908C5.50866 10.655 5.54189 10.8217 5.62488 10.965C6.52292 12.4939 7.61443 13.9005 8.87238 15.15C10.1219 16.408 11.5285 17.4995 13.0574 18.3975C13.2007 18.4805 13.3674 18.5137 13.5316 18.492C13.6957 18.4703 13.8481 18.3949 13.9649 18.2775L15.4649 16.7775C15.6054 16.6378 15.7955 16.5594 15.9936 16.5594C16.1918 16.5594 16.3819 16.6378 16.5224 16.7775L18.6449 18.9C18.7144 18.9701 18.7694 19.0532 18.8067 19.1446C18.844 19.236 18.8629 19.3338 18.8624 19.4325C18.8577 19.6241 18.7799 19.8065 18.6449 19.9425ZM19.9499 4.04252C18.9076 2.99625 17.6685 2.16665 16.304 1.60156C14.9395 1.03647 13.4767 0.747059 11.9999 0.750023C11.801 0.750023 11.6102 0.82904 11.4695 0.969692C11.3289 1.11034 11.2499 1.30111 11.2499 1.50002C11.2499 1.69893 11.3289 1.8897 11.4695 2.03035C11.6102 2.171 11.801 2.25002 11.9999 2.25002C13.2872 2.24998 14.5619 2.50488 15.7502 3.00001C16.9385 3.49514 18.017 4.22071 18.9235 5.13484C19.83 6.04897 20.5464 7.13356 21.0315 8.32602C21.5166 9.51848 21.7608 10.7952 21.7499 12.0825C21.7499 12.2814 21.8289 12.4722 21.9695 12.6129C22.1102 12.7535 22.301 12.8325 22.4999 12.8325C22.6988 12.8325 22.8896 12.7535 23.0302 12.6129C23.1709 12.4722 23.2499 12.2814 23.2499 12.0825C23.2642 10.59 22.9797 9.10965 22.4129 7.72882C21.8461 6.34799 21.0087 5.09459 19.9499 4.04252Z" fill="#A1A8B0"/>
<path d="M15.6823 8.33249C16.1079 8.75555 16.4446 9.25948 16.6726 9.81462C16.9006 10.3698 17.0152 10.9649 17.0098 11.565C17.0098 11.7639 17.0888 11.9547 17.2294 12.0953C17.3701 12.236 17.5609 12.315 17.7598 12.315C17.9587 12.315 18.1494 12.236 18.2901 12.0953C18.4307 11.9547 18.5098 11.7639 18.5098 11.565C18.5197 10.7708 18.3718 9.98248 18.0747 9.24585C17.7777 8.50922 17.3373 7.8389 16.7791 7.27378C16.221 6.70866 15.5562 6.25999 14.8233 5.95378C14.0904 5.64757 13.304 5.48993 12.5098 5.48999C12.3109 5.48999 12.1201 5.56901 11.9794 5.70966C11.8388 5.85031 11.7598 6.04108 11.7598 6.23999C11.7598 6.4389 11.8388 6.62967 11.9794 6.77032C12.1201 6.91097 12.3109 6.98999 12.5098 6.98999C13.1008 6.99444 13.6852 7.1153 14.2296 7.34565C14.7739 7.57599 15.2675 7.91133 15.6823 8.33249Z" fill="#A1A8B0"/>
</g>
<defs>
<clipPath id="clip0_4356_278">
<rect width="24" height="24" fill="white"/>
</clipPath>
</defs>
</svg>
