<svg width="311" height="151" viewBox="0 0 311 151" fill="none" xmlns="http://www.w3.org/2000/svg">
<rect x="1" width="310" height="151" rx="2.97419" fill="#F8F8FF"/>
<rect x="1.37177" y="0.371774" width="309.256" height="150.256" rx="2.60242" stroke="#384EB7" stroke-opacity="0.3" stroke-width="0.743548" stroke-dasharray="3.72 3.72"/>
<path d="M78.7766 98.9402V90.553H81.8222C82.7818 90.553 83.5908 90.7195 84.2491 91.0526C84.9153 91.3778 85.4189 91.8537 85.76 92.4802C86.101 93.0989 86.2715 93.8523 86.2715 94.7406C86.2715 95.621 86.101 96.3744 85.76 97.001C85.4189 97.6276 84.9153 98.1074 84.2491 98.4405C83.5908 98.7736 82.7818 98.9402 81.8222 98.9402H78.7766ZM80.3113 97.6672H81.727C82.7422 97.6672 83.4956 97.4253 83.9874 96.9415C84.4791 96.4577 84.725 95.7241 84.725 94.7406C84.725 93.7492 84.4791 93.0156 83.9874 92.5397C83.4956 92.0559 82.7422 91.814 81.727 91.814H80.3113V97.6672ZM87.7077 98.9402V94.467C87.7077 94.2132 87.6998 93.9554 87.6839 93.6937C87.676 93.432 87.6562 93.1782 87.6244 92.9323H89.0639L89.2305 94.5741H88.9926C89.0719 94.1775 89.2027 93.8484 89.3852 93.5866C89.5755 93.3249 89.8055 93.1306 90.0752 93.0037C90.3448 92.8768 90.6383 92.8133 90.9555 92.8133C91.0983 92.8133 91.2133 92.8213 91.3005 92.8371C91.3878 92.8451 91.475 92.8649 91.5623 92.8966L91.5504 94.2053C91.3997 94.1418 91.2688 94.1022 91.1578 94.0863C91.0547 94.0704 90.9238 94.0625 90.7652 94.0625C90.4241 94.0625 90.1347 94.1339 89.8967 94.2766C89.6667 94.4194 89.4922 94.6177 89.3733 94.8715C89.2622 95.1253 89.2067 95.4148 89.2067 95.74V98.9402H87.7077ZM94.6518 99.0592C94.1283 99.0592 93.6683 98.9362 93.2718 98.6904C92.8752 98.4366 92.5659 98.0757 92.3438 97.6077C92.1218 97.1398 92.0107 96.5807 92.0107 95.9303C92.0107 95.2799 92.1218 94.7248 92.3438 94.2648C92.5659 93.7968 92.8752 93.4399 93.2718 93.194C93.6683 92.9402 94.1283 92.8133 94.6518 92.8133C95.1594 92.8133 95.6035 92.9402 95.9842 93.194C96.3729 93.4399 96.6306 93.773 96.7575 94.1934H96.6267L96.7575 92.9323H98.1851C98.1614 93.1782 98.1376 93.428 98.1138 93.6818C98.0979 93.9356 98.09 94.1854 98.09 94.4313V98.9402H96.6148L96.6029 97.7029H96.7456C96.6187 98.1153 96.361 98.4445 95.9723 98.6904C95.5837 98.9362 95.1435 99.0592 94.6518 99.0592ZM95.0682 97.9171C95.5361 97.9171 95.9129 97.7545 96.1984 97.4293C96.4839 97.0962 96.6267 96.5965 96.6267 95.9303C96.6267 95.2641 96.4839 94.7684 96.1984 94.4432C95.9129 94.118 95.5361 93.9554 95.0682 93.9554C94.6003 93.9554 94.2235 94.118 93.938 94.4432C93.6525 94.7684 93.5097 95.2641 93.5097 95.9303C93.5097 96.5965 93.6485 97.0962 93.9261 97.4293C94.2116 97.7545 94.5923 97.9171 95.0682 97.9171ZM102.493 101.605C101.938 101.605 101.434 101.546 100.982 101.427C100.538 101.308 100.142 101.125 99.7926 100.879L100.114 99.8087C100.344 99.9593 100.582 100.082 100.828 100.177C101.073 100.273 101.327 100.344 101.589 100.392C101.851 100.439 102.116 100.463 102.386 100.463C102.941 100.463 103.354 100.324 103.623 100.047C103.901 99.7769 104.04 99.3883 104.04 98.8807V97.4412H104.159C104.032 97.8536 103.774 98.1828 103.385 98.4286C103.005 98.6745 102.565 98.7974 102.065 98.7974C101.526 98.7974 101.054 98.6785 100.649 98.4405C100.253 98.1947 99.9433 97.8457 99.7212 97.3936C99.4992 96.9415 99.3881 96.4101 99.3881 95.7994C99.3881 95.1887 99.4992 94.6613 99.7212 94.2172C99.9433 93.7651 100.253 93.4201 100.649 93.1821C101.054 92.9363 101.526 92.8133 102.065 92.8133C102.572 92.8133 103.013 92.9363 103.385 93.1821C103.766 93.4201 104.02 93.7453 104.147 94.1577L104.04 94.0863L104.159 92.9323H105.598C105.567 93.1782 105.543 93.428 105.527 93.6818C105.511 93.9356 105.503 94.1854 105.503 94.4313V98.7023C105.503 99.6461 105.245 100.364 104.73 100.856C104.222 101.355 103.477 101.605 102.493 101.605ZM102.469 97.6553C102.945 97.6553 103.322 97.4967 103.6 97.1795C103.885 96.8543 104.028 96.3943 104.028 95.7994C104.028 95.2046 103.885 94.7486 103.6 94.4313C103.322 94.1141 102.945 93.9554 102.469 93.9554C101.986 93.9554 101.601 94.1141 101.315 94.4313C101.03 94.7486 100.887 95.2046 100.887 95.7994C100.887 96.3943 101.03 96.8543 101.315 97.1795C101.601 97.4967 101.986 97.6553 102.469 97.6553ZM117.394 99.0592C117.029 98.9323 116.68 98.7617 116.347 98.5476C116.014 98.3255 115.712 98.0915 115.443 97.8457L115.764 97.8576C115.399 98.2303 114.975 98.5238 114.491 98.7379C114.007 98.9521 113.492 99.0592 112.944 99.0592C112.334 99.0592 111.806 98.964 111.362 98.7736C110.918 98.5833 110.577 98.3216 110.339 97.9884C110.101 97.6474 109.982 97.2508 109.982 96.7988C109.982 96.2594 110.141 95.7994 110.458 95.4187C110.775 95.038 111.211 94.6811 111.767 94.348L112.171 94.122L111.945 94.3956C111.604 94.0546 111.35 93.7254 111.184 93.4082C111.017 93.0909 110.934 92.7618 110.934 92.4208C110.934 92.0242 111.029 91.6792 111.219 91.3857C111.418 91.0843 111.691 90.8504 112.04 90.6838C112.397 90.5173 112.813 90.434 113.289 90.434C113.908 90.434 114.412 90.6005 114.8 90.9337C115.189 91.2588 115.383 91.703 115.383 92.2661C115.383 92.5675 115.324 92.849 115.205 93.1108C115.086 93.3725 114.891 93.6223 114.622 93.8603C114.36 94.0982 114.015 94.3361 113.587 94.5741L113.622 94.2766L115.704 96.43H115.395C115.601 96.1048 115.76 95.7241 115.871 95.2879C115.982 94.8517 116.049 94.3917 116.073 93.9078H117.322C117.299 94.5582 117.195 95.1729 117.013 95.7518C116.831 96.3308 116.585 96.8424 116.275 97.2865L116.264 96.9296C116.478 97.1517 116.724 97.3539 117.001 97.5364C117.279 97.7188 117.58 97.8695 117.905 97.9884L117.394 99.0592ZM113.028 97.9052C113.424 97.9052 113.777 97.8298 114.086 97.6791C114.404 97.5284 114.685 97.3064 114.931 97.0129L114.895 97.3698L112.397 94.8358L113.004 94.8477L112.659 95.038C112.389 95.2046 112.163 95.3712 111.981 95.5377C111.806 95.7043 111.675 95.8827 111.588 96.0731C111.501 96.2555 111.457 96.4657 111.457 96.7036C111.457 97.0764 111.592 97.3698 111.862 97.584C112.131 97.7981 112.52 97.9052 113.028 97.9052ZM113.289 91.4452C112.988 91.4452 112.746 91.5325 112.564 91.7069C112.381 91.8814 112.29 92.1114 112.29 92.397C112.29 92.5477 112.318 92.6904 112.373 92.8252C112.429 92.9601 112.52 93.1068 112.647 93.2654C112.774 93.4161 112.94 93.6025 113.147 93.8246L112.79 93.8484C113.281 93.5787 113.638 93.3328 113.86 93.1108C114.09 92.8808 114.205 92.619 114.205 92.3256C114.205 92.048 114.122 91.8338 113.956 91.6832C113.789 91.5245 113.567 91.4452 113.289 91.4452ZM124.162 99.0592C123.638 99.0592 123.174 98.9362 122.77 98.6904C122.373 98.4366 122.064 98.0757 121.842 97.6077C121.62 97.1398 121.509 96.5807 121.509 95.9303C121.509 95.2799 121.62 94.7248 121.842 94.2648C122.064 93.7968 122.373 93.4399 122.77 93.194C123.174 92.9402 123.638 92.8133 124.162 92.8133C124.661 92.8133 125.102 92.9363 125.482 93.1821C125.871 93.4201 126.129 93.7453 126.255 94.1577H126.101V90.1842H127.588V98.9402H126.125V97.6672H126.267C126.14 98.0955 125.883 98.4366 125.494 98.6904C125.113 98.9362 124.669 99.0592 124.162 99.0592ZM124.578 97.9171C125.046 97.9171 125.423 97.7545 125.708 97.4293C125.994 97.0962 126.137 96.5965 126.137 95.9303C126.137 95.2641 125.994 94.7684 125.708 94.4432C125.423 94.118 125.046 93.9554 124.578 93.9554C124.11 93.9554 123.729 94.118 123.436 94.4432C123.15 94.7684 123.008 95.2641 123.008 95.9303C123.008 96.5965 123.15 97.0962 123.436 97.4293C123.729 97.7545 124.11 97.9171 124.578 97.9171ZM129.195 98.9402V94.467C129.195 94.2132 129.187 93.9554 129.172 93.6937C129.164 93.432 129.144 93.1782 129.112 92.9323H130.552L130.718 94.5741H130.48C130.56 94.1775 130.69 93.8484 130.873 93.5866C131.063 93.3249 131.293 93.1306 131.563 93.0037C131.833 92.8768 132.126 92.8133 132.443 92.8133C132.586 92.8133 132.701 92.8213 132.788 92.8371C132.875 92.8451 132.963 92.8649 133.05 92.8966L133.038 94.2053C132.887 94.1418 132.756 94.1022 132.645 94.0863C132.542 94.0704 132.411 94.0625 132.253 94.0625C131.912 94.0625 131.622 94.1339 131.384 94.2766C131.154 94.4194 130.98 94.6177 130.861 94.8715C130.75 95.1253 130.694 95.4148 130.694 95.74V98.9402H129.195ZM136.497 99.0592C135.879 99.0592 135.343 98.9323 134.891 98.6785C134.439 98.4247 134.086 98.0638 133.832 97.5958C133.586 97.1279 133.464 96.5727 133.464 95.9303C133.464 95.2879 133.586 94.7367 133.832 94.2766C134.086 93.8087 134.439 93.4478 134.891 93.194C135.343 92.9402 135.879 92.8133 136.497 92.8133C137.116 92.8133 137.651 92.9402 138.103 93.194C138.563 93.4478 138.916 93.8087 139.162 94.2766C139.416 94.7367 139.543 95.2879 139.543 95.9303C139.543 96.5727 139.416 97.1279 139.162 97.5958C138.916 98.0638 138.563 98.4247 138.103 98.6785C137.651 98.9323 137.116 99.0592 136.497 99.0592ZM136.497 97.9171C136.965 97.9171 137.338 97.7545 137.616 97.4293C137.893 97.0962 138.032 96.5965 138.032 95.9303C138.032 95.2641 137.893 94.7684 137.616 94.4432C137.338 94.118 136.965 93.9554 136.497 93.9554C136.029 93.9554 135.657 94.118 135.379 94.4432C135.101 94.7684 134.963 95.2641 134.963 95.9303C134.963 96.5965 135.101 97.0962 135.379 97.4293C135.657 97.7545 136.029 97.9171 136.497 97.9171ZM140.825 101.51V94.4313C140.825 94.1854 140.817 93.9356 140.801 93.6818C140.786 93.428 140.762 93.1782 140.73 92.9323H142.17L142.3 94.1934H142.17C142.289 93.773 142.538 93.4399 142.919 93.194C143.308 92.9402 143.756 92.8133 144.263 92.8133C144.795 92.8133 145.259 92.9402 145.655 93.194C146.052 93.4399 146.361 93.7968 146.583 94.2648C146.805 94.7248 146.916 95.2799 146.916 95.9303C146.916 96.5807 146.805 97.1398 146.583 97.6077C146.361 98.0757 146.052 98.4366 145.655 98.6904C145.259 98.9362 144.795 99.0592 144.263 99.0592C143.764 99.0592 143.324 98.9362 142.943 98.6904C142.562 98.4445 142.308 98.1153 142.181 97.7029H142.312V101.51H140.825ZM143.847 97.9171C144.323 97.9171 144.704 97.7545 144.989 97.4293C145.275 97.0962 145.417 96.5965 145.417 95.9303C145.417 95.2641 145.275 94.7684 144.989 94.4432C144.704 94.118 144.323 93.9554 143.847 93.9554C143.379 93.9554 143.002 94.118 142.717 94.4432C142.431 94.7684 142.289 95.2641 142.289 95.9303C142.289 96.5965 142.431 97.0962 142.717 97.4293C143.002 97.7545 143.379 97.9171 143.847 97.9171ZM151.872 98.9402V94.0506H150.718V92.9323H152.288L151.872 93.313V92.397C151.872 91.6514 152.058 91.0883 152.431 90.7076C152.812 90.3269 153.363 90.1366 154.085 90.1366C154.259 90.1366 154.441 90.1485 154.632 90.1723C154.83 90.1961 155.001 90.2397 155.143 90.3031V91.469C155.04 91.4294 154.917 91.3976 154.775 91.3738C154.632 91.35 154.493 91.3381 154.358 91.3381C154.049 91.3381 153.803 91.4294 153.621 91.6118C153.438 91.7863 153.347 92.0718 153.347 92.4683V93.194L153.133 92.9323H157.309V98.9402H155.821V94.0506H153.359V98.9402H151.872ZM155.738 91.8021V90.3507H157.392V91.8021H155.738ZM158.926 98.9402V90.1842H160.413V98.9402H158.926ZM164.931 99.0592C163.924 99.0592 163.134 98.7816 162.563 98.2264C161.992 97.6712 161.707 96.9098 161.707 95.9422C161.707 95.3156 161.83 94.7684 162.076 94.3004C162.321 93.8325 162.662 93.4677 163.099 93.2059C163.543 92.9442 164.058 92.8133 164.645 92.8133C165.224 92.8133 165.708 92.9363 166.097 93.1821C166.485 93.428 166.779 93.773 166.977 94.2172C167.183 94.6613 167.286 95.1808 167.286 95.7756V96.1682H162.908V95.383H166.228L166.025 95.5496C166.025 94.9944 165.906 94.5701 165.668 94.2766C165.438 93.9832 165.101 93.8365 164.657 93.8365C164.165 93.8365 163.785 94.011 163.515 94.3599C163.253 94.7089 163.122 95.1967 163.122 95.8232V95.9779C163.122 96.6282 163.281 97.116 163.598 97.4412C163.924 97.7584 164.38 97.9171 164.966 97.9171C165.308 97.9171 165.625 97.8734 165.918 97.7862C166.22 97.691 166.505 97.5403 166.775 97.3341L167.215 98.3335C166.929 98.5635 166.588 98.7419 166.192 98.8688C165.795 98.9957 165.375 99.0592 164.931 99.0592ZM170.687 99.0592C170.172 99.0592 169.696 98.9997 169.259 98.8807C168.831 98.7538 168.47 98.5793 168.177 98.3572L168.593 97.3579C168.895 97.5641 169.228 97.7227 169.593 97.8338C169.957 97.9448 170.326 98.0003 170.699 98.0003C171.096 98.0003 171.389 97.9329 171.579 97.7981C171.778 97.6633 171.877 97.4808 171.877 97.2508C171.877 97.0684 171.813 96.9257 171.686 96.8226C171.567 96.7115 171.373 96.6282 171.103 96.5727L169.914 96.3467C169.406 96.2357 169.018 96.0453 168.748 95.7756C168.486 95.506 168.355 95.153 168.355 94.7168C168.355 94.3441 168.454 94.0149 168.653 93.7294C168.859 93.4439 169.148 93.2218 169.521 93.0632C169.902 92.8966 170.346 92.8133 170.854 92.8133C171.298 92.8133 171.714 92.8728 172.103 92.9918C172.499 93.1108 172.832 93.2892 173.102 93.5272L172.674 94.4908C172.428 94.2925 172.146 94.1379 171.829 94.0268C171.512 93.9158 171.203 93.8603 170.901 93.8603C170.489 93.8603 170.187 93.9356 169.997 94.0863C169.807 94.2291 169.712 94.4154 169.712 94.6454C169.712 94.8199 169.767 94.9667 169.878 95.0856C169.997 95.1967 170.179 95.2799 170.425 95.3355L171.615 95.5615C172.146 95.6646 172.547 95.847 172.817 96.1088C173.094 96.3626 173.233 96.7115 173.233 97.1557C173.233 97.5522 173.126 97.8933 172.912 98.1788C172.698 98.4643 172.4 98.6824 172.02 98.8331C171.639 98.9838 171.195 99.0592 170.687 99.0592ZM180.483 99.0592C179.864 99.0592 179.329 98.9323 178.877 98.6785C178.425 98.4247 178.072 98.0638 177.818 97.5958C177.572 97.1279 177.449 96.5727 177.449 95.9303C177.449 95.2879 177.572 94.7367 177.818 94.2766C178.072 93.8087 178.425 93.4478 178.877 93.194C179.329 92.9402 179.864 92.8133 180.483 92.8133C181.101 92.8133 181.637 92.9402 182.089 93.194C182.549 93.4478 182.902 93.8087 183.148 94.2766C183.401 94.7367 183.528 95.2879 183.528 95.9303C183.528 96.5727 183.401 97.1279 183.148 97.5958C182.902 98.0638 182.549 98.4247 182.089 98.6785C181.637 98.9323 181.101 99.0592 180.483 99.0592ZM180.483 97.9171C180.951 97.9171 181.323 97.7545 181.601 97.4293C181.879 97.0962 182.017 96.5965 182.017 95.9303C182.017 95.2641 181.879 94.7684 181.601 94.4432C181.323 94.118 180.951 93.9554 180.483 93.9554C180.015 93.9554 179.642 94.118 179.364 94.4432C179.087 94.7684 178.948 95.2641 178.948 95.9303C178.948 96.5965 179.087 97.0962 179.364 97.4293C179.642 97.7545 180.015 97.9171 180.483 97.9171ZM184.799 98.9402V94.467C184.799 94.2132 184.791 93.9554 184.775 93.6937C184.767 93.432 184.747 93.1782 184.716 92.9323H186.155L186.322 94.5741H186.084C186.163 94.1775 186.294 93.8484 186.476 93.5866C186.667 93.3249 186.897 93.1306 187.166 93.0037C187.436 92.8768 187.729 92.8133 188.047 92.8133C188.189 92.8133 188.304 92.8213 188.392 92.8371C188.479 92.8451 188.566 92.8649 188.653 92.8966L188.642 94.2053C188.491 94.1418 188.36 94.1022 188.249 94.0863C188.146 94.0704 188.015 94.0625 187.856 94.0625C187.515 94.0625 187.226 94.1339 186.988 94.2766C186.758 94.4194 186.583 94.6177 186.464 94.8715C186.353 95.1253 186.298 95.4148 186.298 95.74V98.9402H184.799Z" fill="#0F0F0F"/>
<path d="M192.865 98.9402V90.553H196.541C197.453 90.553 198.155 90.7473 198.647 91.1359C199.138 91.5166 199.384 92.048 199.384 92.7301C199.384 93.2377 199.234 93.6659 198.932 94.0149C198.631 94.3639 198.214 94.5979 197.683 94.7168V94.5384C198.294 94.6256 198.766 94.8477 199.099 95.2046C199.44 95.5536 199.61 96.0175 199.61 96.5965C199.61 97.3421 199.353 97.921 198.837 98.3335C198.321 98.7379 197.604 98.9402 196.684 98.9402H192.865ZM194.34 97.7743H196.505C197.021 97.7743 197.421 97.6791 197.707 97.4888C197.992 97.2905 198.135 96.9693 198.135 96.5251C198.135 96.0731 197.992 95.7518 197.707 95.5615C197.421 95.3632 197.021 95.2641 196.505 95.2641H194.34V97.7743ZM194.34 94.1101H196.279C196.826 94.1101 197.231 94.011 197.493 93.8127C197.762 93.6065 197.897 93.3051 197.897 92.9085C197.897 92.512 197.762 92.2145 197.493 92.0163C197.231 91.8101 196.826 91.7069 196.279 91.7069H194.34V94.1101ZM200.948 98.9402V94.467C200.948 94.2132 200.94 93.9554 200.924 93.6937C200.916 93.432 200.896 93.1782 200.865 92.9323H202.304L202.471 94.5741H202.233C202.312 94.1775 202.443 93.8484 202.625 93.5866C202.816 93.3249 203.046 93.1306 203.315 93.0037C203.585 92.8768 203.878 92.8133 204.196 92.8133C204.338 92.8133 204.453 92.8213 204.541 92.8371C204.628 92.8451 204.715 92.8649 204.802 92.8966L204.79 94.2053C204.64 94.1418 204.509 94.1022 204.398 94.0863C204.295 94.0704 204.164 94.0625 204.005 94.0625C203.664 94.0625 203.375 94.1339 203.137 94.2766C202.907 94.4194 202.732 94.6177 202.613 94.8715C202.502 95.1253 202.447 95.4148 202.447 95.74V98.9402H200.948ZM208.25 99.0592C207.631 99.0592 207.096 98.9323 206.644 98.6785C206.191 98.4247 205.839 98.0638 205.585 97.5958C205.339 97.1279 205.216 96.5727 205.216 95.9303C205.216 95.2879 205.339 94.7367 205.585 94.2766C205.839 93.8087 206.191 93.4478 206.644 93.194C207.096 92.9402 207.631 92.8133 208.25 92.8133C208.868 92.8133 209.404 92.9402 209.856 93.194C210.316 93.4478 210.669 93.8087 210.915 94.2766C211.168 94.7367 211.295 95.2879 211.295 95.9303C211.295 96.5727 211.168 97.1279 210.915 97.5958C210.669 98.0638 210.316 98.4247 209.856 98.6785C209.404 98.9323 208.868 99.0592 208.25 99.0592ZM208.25 97.9171C208.718 97.9171 209.09 97.7545 209.368 97.4293C209.646 97.0962 209.784 96.5965 209.784 95.9303C209.784 95.2641 209.646 94.7684 209.368 94.4432C209.09 94.118 208.718 93.9554 208.25 93.9554C207.782 93.9554 207.409 94.118 207.131 94.4432C206.854 94.7684 206.715 95.2641 206.715 95.9303C206.715 96.5965 206.854 97.0962 207.131 97.4293C207.409 97.7545 207.782 97.9171 208.25 97.9171ZM214.127 98.9402L211.783 92.9323H213.318L215.007 97.6077H214.698L216.411 92.9323H217.47L219.171 97.6077H218.898L220.575 92.9323H222.026L219.683 98.9402H218.374L216.578 94.1577H217.208L215.448 98.9402H214.127ZM224.989 99.0592C224.474 99.0592 223.998 98.9997 223.562 98.8807C223.133 98.7538 222.773 98.5793 222.479 98.3572L222.895 97.3579C223.197 97.5641 223.53 97.7227 223.895 97.8338C224.26 97.9448 224.628 98.0003 225.001 98.0003C225.398 98.0003 225.691 97.9329 225.882 97.7981C226.08 97.6633 226.179 97.4808 226.179 97.2508C226.179 97.0684 226.116 96.9257 225.989 96.8226C225.87 96.7115 225.675 96.6282 225.406 96.5727L224.216 96.3467C223.708 96.2357 223.32 96.0453 223.05 95.7756C222.788 95.506 222.658 95.153 222.658 94.7168C222.658 94.3441 222.757 94.0149 222.955 93.7294C223.161 93.4439 223.451 93.2218 223.823 93.0632C224.204 92.8966 224.648 92.8133 225.156 92.8133C225.6 92.8133 226.016 92.8728 226.405 92.9918C226.802 93.1108 227.135 93.2892 227.404 93.5272L226.976 94.4908C226.73 94.2925 226.449 94.1379 226.131 94.0268C225.814 93.9158 225.505 93.8603 225.203 93.8603C224.791 93.8603 224.49 93.9356 224.299 94.0863C224.109 94.2291 224.014 94.4154 224.014 94.6454C224.014 94.8199 224.069 94.9667 224.18 95.0856C224.299 95.1967 224.482 95.2799 224.728 95.3355L225.917 95.5615C226.449 95.6646 226.849 95.847 227.119 96.1088C227.396 96.3626 227.535 96.7115 227.535 97.1557C227.535 97.5522 227.428 97.8933 227.214 98.1788C227 98.4643 226.702 98.6824 226.322 98.8331C225.941 98.9838 225.497 99.0592 224.989 99.0592ZM231.711 99.0592C230.703 99.0592 229.914 98.7816 229.343 98.2264C228.772 97.6712 228.487 96.9098 228.487 95.9422C228.487 95.3156 228.61 94.7684 228.855 94.3004C229.101 93.8325 229.442 93.4677 229.879 93.2059C230.323 92.9442 230.838 92.8133 231.425 92.8133C232.004 92.8133 232.488 92.9363 232.877 93.1821C233.265 93.428 233.559 93.773 233.757 94.2172C233.963 94.6613 234.066 95.1808 234.066 95.7756V96.1682H229.688V95.383H233.007L232.805 95.5496C232.805 94.9944 232.686 94.5701 232.448 94.2766C232.218 93.9832 231.881 93.8365 231.437 93.8365C230.945 93.8365 230.565 94.011 230.295 94.3599C230.033 94.7089 229.902 95.1967 229.902 95.8232V95.9779C229.902 96.6282 230.061 97.116 230.378 97.4412C230.703 97.7584 231.16 97.9171 231.746 97.9171C232.087 97.9171 232.405 97.8734 232.698 97.7862C233 97.691 233.285 97.5403 233.555 97.3341L233.995 98.3335C233.709 98.5635 233.368 98.7419 232.972 98.8688C232.575 98.9957 232.155 99.0592 231.711 99.0592Z" fill="#0EBE7F"/>
<path d="M191.937 100.213H234.518V100.737H191.937V100.213Z" fill="#0EBE7F"/>
<path d="M71.7939 121.301C71.2883 121.301 70.8362 121.236 70.4377 121.105C70.0392 120.974 69.6912 120.787 69.3938 120.543L69.6614 119.954C69.8696 120.109 70.0778 120.239 70.286 120.347C70.5002 120.448 70.7292 120.525 70.9731 120.579C71.2169 120.626 71.4906 120.65 71.7939 120.65C72.3233 120.65 72.7159 120.552 72.9717 120.355C73.2275 120.159 73.3554 119.897 73.3554 119.57C73.3554 119.291 73.2662 119.077 73.0877 118.928C72.9093 118.779 72.597 118.66 72.1508 118.571L71.214 118.384C70.637 118.265 70.2057 118.071 69.9202 117.804C69.6406 117.536 69.5008 117.173 69.5008 116.715C69.5008 116.34 69.596 116.013 69.7864 115.734C69.9826 115.454 70.2563 115.237 70.6072 115.082C70.9582 114.928 71.3656 114.85 71.8296 114.85C72.2758 114.85 72.6832 114.919 73.052 115.055C73.4208 115.186 73.7361 115.38 73.9978 115.635L73.7391 116.206C73.4595 115.957 73.165 115.778 72.8557 115.671C72.5524 115.558 72.2073 115.502 71.8207 115.502C71.3329 115.502 70.9463 115.609 70.6608 115.823C70.3812 116.031 70.2414 116.317 70.2414 116.679C70.2414 116.971 70.3306 117.2 70.5091 117.366C70.6875 117.527 70.982 117.649 71.3924 117.732L72.3382 117.92C72.9449 118.045 73.3911 118.232 73.6766 118.482C73.9621 118.732 74.1049 119.083 74.1049 119.535C74.1049 119.88 74.0097 120.186 73.8194 120.454C73.635 120.721 73.3703 120.929 73.0252 121.078C72.6802 121.227 72.2698 121.301 71.7939 121.301ZM76.7999 121.301C76.2705 121.301 75.869 121.156 75.5954 120.864C75.3277 120.573 75.1939 120.126 75.1939 119.526V116.742H75.9166V119.508C75.9166 119.918 75.9999 120.222 76.1664 120.418C76.333 120.608 76.5917 120.703 76.9427 120.703C77.3353 120.703 77.6505 120.576 77.8885 120.32C78.1264 120.064 78.2454 119.722 78.2454 119.294V116.742H78.9681V121.221H78.2632V120.213H78.3792C78.2543 120.558 78.0521 120.825 77.7725 121.016C77.4989 121.206 77.1747 121.301 76.7999 121.301ZM80.3703 123.148V117.777C80.3703 117.61 80.3614 117.441 80.3435 117.268C80.3316 117.09 80.3167 116.914 80.2989 116.742H80.9949L81.093 117.804H80.9859C81.0811 117.453 81.2744 117.176 81.5659 116.974C81.8574 116.766 82.2054 116.662 82.6098 116.662C83.0143 116.662 83.3623 116.754 83.6538 116.938C83.9512 117.123 84.1832 117.387 84.3497 117.732C84.5163 118.077 84.5996 118.494 84.5996 118.981C84.5996 119.463 84.5163 119.877 84.3497 120.222C84.1891 120.567 83.9601 120.834 83.6627 121.025C83.3653 121.209 83.0143 121.301 82.6098 121.301C82.2113 121.301 81.8663 121.2 81.5748 120.998C81.2834 120.796 81.09 120.519 80.9949 120.168H81.093V123.148H80.3703ZM82.4671 120.712C82.8954 120.712 83.2344 120.567 83.4843 120.275C83.74 119.978 83.8679 119.546 83.8679 118.981C83.8679 118.41 83.74 117.979 83.4843 117.688C83.2344 117.39 82.8954 117.241 82.4671 117.241C82.0447 117.241 81.7057 117.39 81.4499 117.688C81.2001 117.979 81.0752 118.41 81.0752 118.981C81.0752 119.546 81.2001 119.978 81.4499 120.275C81.7057 120.567 82.0447 120.712 82.4671 120.712ZM85.7203 123.148V117.777C85.7203 117.61 85.7114 117.441 85.6936 117.268C85.6817 117.09 85.6668 116.914 85.649 116.742H86.3449L86.4431 117.804H86.336C86.4312 117.453 86.6245 117.176 86.916 116.974C87.2074 116.766 87.5554 116.662 87.9599 116.662C88.3644 116.662 88.7124 116.754 89.0038 116.938C89.3013 117.123 89.5333 117.387 89.6998 117.732C89.8664 118.077 89.9496 118.494 89.9496 118.981C89.9496 119.463 89.8664 119.877 89.6998 120.222C89.5392 120.567 89.3102 120.834 89.0128 121.025C88.7154 121.209 88.3644 121.301 87.9599 121.301C87.5614 121.301 87.2164 121.2 86.9249 120.998C86.6334 120.796 86.4401 120.519 86.3449 120.168H86.4431V123.148H85.7203ZM87.8171 120.712C88.2454 120.712 88.5845 120.567 88.8343 120.275C89.0901 119.978 89.218 119.546 89.218 118.981C89.218 118.41 89.0901 117.979 88.8343 117.688C88.5845 117.39 88.2454 117.241 87.8171 117.241C87.3948 117.241 87.0558 117.39 86.8 117.688C86.5501 117.979 86.4252 118.41 86.4252 118.981C86.4252 119.546 86.5501 119.978 86.8 120.275C87.0558 120.567 87.3948 120.712 87.8171 120.712ZM92.9085 121.301C92.4802 121.301 92.1054 121.209 91.7842 121.025C91.4689 120.834 91.2251 120.567 91.0526 120.222C90.8801 119.871 90.7938 119.457 90.7938 118.981C90.7938 118.5 90.8801 118.086 91.0526 117.741C91.2251 117.396 91.4689 117.131 91.7842 116.947C92.1054 116.757 92.4802 116.662 92.9085 116.662C93.3427 116.662 93.7174 116.757 94.0327 116.947C94.3539 117.131 94.6008 117.396 94.7733 117.741C94.9517 118.086 95.0409 118.5 95.0409 118.981C95.0409 119.457 94.9517 119.871 94.7733 120.222C94.6008 120.567 94.3539 120.834 94.0327 121.025C93.7174 121.209 93.3427 121.301 92.9085 121.301ZM92.9085 120.712C93.3367 120.712 93.6758 120.567 93.9256 120.275C94.1755 119.978 94.3004 119.546 94.3004 118.981C94.3004 118.41 94.1725 117.979 93.9167 117.688C93.6669 117.39 93.3308 117.241 92.9085 117.241C92.4861 117.241 92.15 117.39 91.9002 117.688C91.6504 117.979 91.5255 118.41 91.5255 118.981C91.5255 119.546 91.6504 119.978 91.9002 120.275C92.15 120.567 92.4861 120.712 92.9085 120.712ZM96.1499 121.221V117.821C96.1499 117.643 96.144 117.462 96.1321 117.277C96.1261 117.093 96.1142 116.914 96.0964 116.742H96.7924L96.8816 117.83L96.7567 117.839C96.8161 117.572 96.9202 117.352 97.069 117.179C97.2177 117.007 97.3931 116.879 97.5954 116.795C97.7976 116.706 98.0088 116.662 98.2289 116.662C98.3181 116.662 98.3954 116.664 98.4609 116.67C98.5323 116.676 98.5977 116.691 98.6572 116.715L98.6483 117.357C98.559 117.328 98.4757 117.31 98.3984 117.304C98.327 117.292 98.2438 117.286 98.1486 117.286C97.8869 117.286 97.6578 117.349 97.4615 117.473C97.2712 117.598 97.1255 117.759 97.0243 117.955C96.9292 118.152 96.8816 118.36 96.8816 118.58V121.221H96.1499ZM101.233 121.301C100.792 121.301 100.456 121.176 100.224 120.927C99.9924 120.671 99.8764 120.287 99.8764 119.775V117.304H99.002V116.742H99.8764V115.519L100.599 115.314V116.742H101.884V117.304H100.599V119.695C100.599 120.052 100.659 120.308 100.778 120.463C100.903 120.611 101.087 120.686 101.331 120.686C101.444 120.686 101.545 120.677 101.634 120.659C101.723 120.635 101.804 120.608 101.875 120.579V121.185C101.792 121.221 101.691 121.248 101.572 121.266C101.459 121.289 101.346 121.301 101.233 121.301ZM104.71 121.301C104.008 121.301 103.455 121.099 103.05 120.695C102.646 120.284 102.444 119.716 102.444 118.99C102.444 118.52 102.533 118.113 102.711 117.768C102.89 117.417 103.14 117.146 103.461 116.956C103.782 116.76 104.151 116.662 104.567 116.662C104.978 116.662 105.323 116.748 105.602 116.92C105.882 117.093 106.096 117.34 106.245 117.661C106.393 117.976 106.468 118.351 106.468 118.785V119.053H102.997V118.598H105.995L105.843 118.714C105.843 118.238 105.736 117.866 105.522 117.598C105.308 117.331 104.99 117.197 104.567 117.197C104.121 117.197 103.773 117.354 103.523 117.67C103.273 117.979 103.149 118.398 103.149 118.928V119.008C103.149 119.567 103.285 119.993 103.559 120.284C103.839 120.57 104.228 120.712 104.728 120.712C104.996 120.712 105.245 120.674 105.477 120.596C105.715 120.513 105.941 120.379 106.155 120.195L106.405 120.703C106.209 120.894 105.959 121.042 105.656 121.15C105.358 121.251 105.043 121.301 104.71 121.301ZM109.269 121.301C108.876 121.301 108.531 121.209 108.234 121.025C107.937 120.834 107.705 120.567 107.538 120.222C107.377 119.877 107.297 119.463 107.297 118.981C107.297 118.494 107.377 118.077 107.538 117.732C107.705 117.387 107.937 117.123 108.234 116.938C108.531 116.754 108.876 116.662 109.269 116.662C109.673 116.662 110.021 116.763 110.313 116.965C110.61 117.167 110.81 117.441 110.911 117.786H110.804V114.654H111.526V121.221H110.813V120.15H110.911C110.816 120.507 110.619 120.79 110.322 120.998C110.024 121.2 109.673 121.301 109.269 121.301ZM109.421 120.712C109.843 120.712 110.182 120.567 110.438 120.275C110.694 119.978 110.822 119.546 110.822 118.981C110.822 118.41 110.694 117.979 110.438 117.688C110.182 117.39 109.843 117.241 109.421 117.241C108.998 117.241 108.659 117.39 108.403 117.688C108.154 117.979 108.029 118.41 108.029 118.981C108.029 119.546 108.154 119.978 108.403 120.275C108.659 120.567 108.998 120.712 109.421 120.712ZM115.482 121.221V117.304H114.608V116.742H115.679L115.482 116.929V116.18C115.482 115.674 115.61 115.287 115.866 115.02C116.122 114.752 116.488 114.618 116.963 114.618C117.082 114.618 117.204 114.63 117.329 114.654C117.46 114.672 117.567 114.699 117.65 114.734V115.332C117.579 115.302 117.49 115.279 117.383 115.261C117.282 115.237 117.178 115.225 117.07 115.225C116.886 115.225 116.728 115.264 116.598 115.341C116.467 115.412 116.369 115.522 116.303 115.671C116.238 115.82 116.205 116.01 116.205 116.242V116.893L116.089 116.742H117.454V117.304H116.205V121.221H115.482ZM119.981 121.301C119.553 121.301 119.178 121.209 118.857 121.025C118.542 120.834 118.298 120.567 118.125 120.222C117.953 119.871 117.867 119.457 117.867 118.981C117.867 118.5 117.953 118.086 118.125 117.741C118.298 117.396 118.542 117.131 118.857 116.947C119.178 116.757 119.553 116.662 119.981 116.662C120.415 116.662 120.79 116.757 121.105 116.947C121.427 117.131 121.673 117.396 121.846 117.741C122.024 118.086 122.114 118.5 122.114 118.981C122.114 119.457 122.024 119.871 121.846 120.222C121.673 120.567 121.427 120.834 121.105 121.025C120.79 121.209 120.415 121.301 119.981 121.301ZM119.981 120.712C120.409 120.712 120.749 120.567 120.998 120.275C121.248 119.978 121.373 119.546 121.373 118.981C121.373 118.41 121.245 117.979 120.989 117.688C120.74 117.39 120.403 117.241 119.981 117.241C119.559 117.241 119.223 117.39 118.973 117.688C118.723 117.979 118.598 118.41 118.598 118.981C118.598 119.546 118.723 119.978 118.973 120.275C119.223 120.567 119.559 120.712 119.981 120.712ZM123.223 121.221V117.821C123.223 117.643 123.217 117.462 123.205 117.277C123.199 117.093 123.187 116.914 123.169 116.742H123.865L123.954 117.83L123.829 117.839C123.889 117.572 123.993 117.352 124.142 117.179C124.29 117.007 124.466 116.879 124.668 116.795C124.87 116.706 125.082 116.662 125.302 116.662C125.391 116.662 125.468 116.664 125.534 116.67C125.605 116.676 125.67 116.691 125.73 116.715L125.721 117.357C125.632 117.328 125.548 117.31 125.471 117.304C125.4 117.292 125.316 117.286 125.221 117.286C124.96 117.286 124.731 117.349 124.534 117.473C124.344 117.598 124.198 117.759 124.097 117.955C124.002 118.152 123.954 118.36 123.954 118.58V121.221H123.223ZM126.482 121.221V117.777C126.482 117.61 126.473 117.441 126.455 117.268C126.443 117.09 126.428 116.914 126.411 116.742H127.106L127.196 117.723H127.089C127.208 117.384 127.395 117.123 127.651 116.938C127.912 116.754 128.228 116.662 128.597 116.662C128.971 116.662 129.275 116.751 129.507 116.929C129.745 117.108 129.905 117.384 129.988 117.759H129.855C129.968 117.42 130.167 117.152 130.452 116.956C130.738 116.76 131.071 116.662 131.452 116.662C131.945 116.662 132.317 116.804 132.567 117.09C132.817 117.369 132.942 117.813 132.942 118.419V121.221H132.219V118.464C132.219 118.042 132.145 117.735 131.996 117.545C131.847 117.349 131.609 117.25 131.282 117.25C130.907 117.25 130.61 117.381 130.39 117.643C130.176 117.899 130.069 118.244 130.069 118.678V121.221H129.346V118.464C129.346 118.042 129.272 117.735 129.123 117.545C128.974 117.349 128.736 117.25 128.409 117.25C128.034 117.25 127.74 117.381 127.526 117.643C127.312 117.899 127.205 118.244 127.205 118.678V121.221H126.482ZM136.02 121.301C135.621 121.301 135.273 121.209 134.976 121.025C134.678 120.834 134.446 120.567 134.28 120.222C134.119 119.877 134.039 119.463 134.039 118.981C134.039 118.494 134.119 118.077 134.28 117.732C134.446 117.387 134.678 117.123 134.976 116.938C135.273 116.754 135.621 116.662 136.02 116.662C136.424 116.662 136.772 116.766 137.063 116.974C137.361 117.176 137.557 117.453 137.652 117.804H137.545L137.643 116.742H138.339C138.322 116.914 138.304 117.09 138.286 117.268C138.274 117.441 138.268 117.61 138.268 117.777V121.221H137.545V120.168H137.643C137.548 120.519 137.352 120.796 137.055 120.998C136.757 121.2 136.412 121.301 136.02 121.301ZM136.162 120.712C136.591 120.712 136.93 120.567 137.179 120.275C137.429 119.978 137.554 119.546 137.554 118.981C137.554 118.41 137.429 117.979 137.179 117.688C136.93 117.39 136.591 117.241 136.162 117.241C135.74 117.241 135.401 117.39 135.145 117.688C134.895 117.979 134.77 118.41 134.77 118.981C134.77 119.546 134.895 119.978 135.145 120.275C135.401 120.567 135.74 120.712 136.162 120.712ZM141.254 121.301C140.813 121.301 140.477 121.176 140.245 120.927C140.013 120.671 139.897 120.287 139.897 119.775V117.304H139.023V116.742H139.897V115.519L140.62 115.314V116.742H141.905V117.304H140.62V119.695C140.62 120.052 140.68 120.308 140.799 120.463C140.923 120.611 141.108 120.686 141.352 120.686C141.465 120.686 141.566 120.677 141.655 120.659C141.744 120.635 141.825 120.608 141.896 120.579V121.185C141.813 121.221 141.712 121.248 141.593 121.266C141.48 121.289 141.367 121.301 141.254 121.301ZM144.731 121.301C144.029 121.301 143.476 121.099 143.071 120.695C142.667 120.284 142.465 119.716 142.465 118.99C142.465 118.52 142.554 118.113 142.732 117.768C142.911 117.417 143.161 117.146 143.482 116.956C143.803 116.76 144.172 116.662 144.588 116.662C144.999 116.662 145.344 116.748 145.623 116.92C145.903 117.093 146.117 117.34 146.266 117.661C146.414 117.976 146.489 118.351 146.489 118.785V119.053H143.018V118.598H146.016L145.864 118.714C145.864 118.238 145.757 117.866 145.543 117.598C145.329 117.331 145.011 117.197 144.588 117.197C144.142 117.197 143.794 117.354 143.544 117.67C143.294 117.979 143.169 118.398 143.169 118.928V119.008C143.169 119.567 143.306 119.993 143.58 120.284C143.86 120.57 144.249 120.712 144.749 120.712C145.016 120.712 145.266 120.674 145.498 120.596C145.736 120.513 145.962 120.379 146.176 120.195L146.426 120.703C146.23 120.894 145.98 121.042 145.677 121.15C145.379 121.251 145.064 121.301 144.731 121.301ZM149.085 121.301C148.728 121.301 148.395 121.254 148.085 121.158C147.776 121.057 147.52 120.918 147.318 120.739L147.568 120.231C147.788 120.403 148.026 120.531 148.282 120.614C148.543 120.697 148.814 120.739 149.094 120.739C149.45 120.739 149.718 120.677 149.897 120.552C150.081 120.421 150.173 120.242 150.173 120.016C150.173 119.844 150.114 119.707 149.995 119.606C149.882 119.499 149.694 119.416 149.433 119.356L148.603 119.187C148.222 119.103 147.937 118.964 147.746 118.767C147.556 118.565 147.461 118.309 147.461 118C147.461 117.738 147.529 117.509 147.666 117.313C147.803 117.111 148.002 116.953 148.264 116.84C148.526 116.721 148.832 116.662 149.183 116.662C149.51 116.662 149.81 116.712 150.084 116.813C150.364 116.908 150.596 117.048 150.78 117.233L150.521 117.732C150.343 117.56 150.138 117.432 149.906 117.349C149.68 117.259 149.445 117.215 149.201 117.215C148.85 117.215 148.585 117.286 148.407 117.429C148.234 117.566 148.148 117.747 148.148 117.973C148.148 118.146 148.201 118.288 148.308 118.401C148.421 118.508 148.594 118.589 148.826 118.642L149.656 118.812C150.06 118.901 150.361 119.041 150.557 119.231C150.759 119.416 150.86 119.665 150.86 119.981C150.86 120.248 150.786 120.483 150.637 120.686C150.488 120.882 150.28 121.034 150.013 121.141C149.751 121.248 149.442 121.301 149.085 121.301ZM151.878 117.652V116.742H152.788V117.652H151.878ZM151.878 121.221V120.311H152.788V121.221H151.878ZM156.378 122.881C156.283 122.881 156.173 122.875 156.048 122.863C155.929 122.857 155.807 122.839 155.682 122.809V122.194C155.795 122.217 155.899 122.235 155.994 122.247C156.095 122.265 156.184 122.274 156.262 122.274C156.535 122.274 156.741 122.188 156.877 122.015C157.014 121.849 157.083 121.581 157.083 121.212V114.931H157.823V121.221C157.823 121.578 157.77 121.881 157.663 122.131C157.561 122.381 157.404 122.568 157.19 122.693C156.982 122.818 156.711 122.881 156.378 122.881ZM159.395 121.221V114.931H161.955C162.616 114.931 163.124 115.091 163.481 115.412C163.838 115.728 164.016 116.168 164.016 116.733C164.016 117.286 163.838 117.726 163.481 118.053C163.124 118.375 162.616 118.535 161.955 118.535H160.135V121.221H159.395ZM160.135 117.92H161.884C162.342 117.92 162.687 117.815 162.919 117.607C163.157 117.399 163.276 117.108 163.276 116.733C163.276 116.352 163.157 116.058 162.919 115.85C162.687 115.641 162.342 115.537 161.884 115.537H160.135V117.92ZM165.206 121.221V114.931H169.222V115.537H165.929V117.723H169.025V118.339H165.929V120.605H169.222V121.221H165.206ZM173.317 121.301C172.627 121.301 172.05 121.173 171.586 120.918C171.122 120.662 170.774 120.293 170.542 119.811C170.31 119.329 170.194 118.752 170.194 118.08C170.194 117.414 170.316 116.84 170.56 116.358C170.803 115.876 171.154 115.505 171.612 115.243C172.07 114.981 172.624 114.85 173.272 114.85C173.73 114.85 174.126 114.919 174.459 115.055C174.798 115.186 175.101 115.383 175.369 115.644L175.092 116.224C174.896 116.052 174.706 115.915 174.521 115.814C174.343 115.713 174.155 115.638 173.959 115.591C173.763 115.537 173.534 115.51 173.272 115.51C172.528 115.51 171.957 115.737 171.559 116.189C171.166 116.635 170.97 117.268 170.97 118.089C170.97 118.916 171.16 119.549 171.541 119.99C171.928 120.43 172.526 120.65 173.335 120.65C173.632 120.65 173.914 120.623 174.182 120.57C174.456 120.51 174.72 120.427 174.976 120.32L174.816 120.721V118.508H173.21V117.929H175.449V120.846C175.193 120.983 174.869 121.093 174.477 121.176C174.09 121.26 173.703 121.301 173.317 121.301ZM177.104 122.238L176.765 121.979C176.925 121.813 177.029 121.655 177.077 121.506C177.131 121.364 177.157 121.218 177.157 121.069L177.318 121.221H176.729V120.311H177.639V120.953C177.639 121.191 177.6 121.414 177.523 121.622C177.446 121.837 177.306 122.042 177.104 122.238ZM181.309 121.221V114.931H183.87C184.53 114.931 185.038 115.091 185.395 115.412C185.752 115.728 185.931 116.168 185.931 116.733C185.931 117.286 185.752 117.726 185.395 118.053C185.038 118.375 184.53 118.535 183.87 118.535H182.049V121.221H181.309ZM182.049 117.92H183.798C184.256 117.92 184.601 117.815 184.833 117.607C185.071 117.399 185.19 117.108 185.19 116.733C185.19 116.352 185.071 116.058 184.833 115.85C184.601 115.641 184.256 115.537 183.798 115.537H182.049V117.92ZM187.121 121.221V114.931H187.701L191.734 120.284H191.528V114.931H192.216V121.221H191.644L187.611 115.867H187.808V121.221H187.121ZM196.677 121.301C195.987 121.301 195.41 121.173 194.946 120.918C194.482 120.662 194.135 120.293 193.903 119.811C193.671 119.329 193.555 118.752 193.555 118.08C193.555 117.414 193.676 116.84 193.92 116.358C194.164 115.876 194.515 115.505 194.973 115.243C195.431 114.981 195.984 114.85 196.633 114.85C197.091 114.85 197.486 114.919 197.82 115.055C198.159 115.186 198.462 115.383 198.73 115.644L198.453 116.224C198.257 116.052 198.066 115.915 197.882 115.814C197.704 115.713 197.516 115.638 197.32 115.591C197.124 115.537 196.895 115.51 196.633 115.51C195.889 115.51 195.318 115.737 194.92 116.189C194.527 116.635 194.331 117.268 194.331 118.089C194.331 118.916 194.521 119.549 194.902 119.99C195.288 120.43 195.886 120.65 196.695 120.65C196.993 120.65 197.275 120.623 197.543 120.57C197.817 120.51 198.081 120.427 198.337 120.32L198.176 120.721V118.508H196.57V117.929H198.81V120.846C198.554 120.983 198.23 121.093 197.837 121.176C197.451 121.26 197.064 121.301 196.677 121.301ZM200.465 122.238L200.126 121.979C200.286 121.813 200.39 121.655 200.438 121.506C200.491 121.364 200.518 121.218 200.518 121.069L200.679 121.221H200.09V120.311H201V120.953C201 121.191 200.961 121.414 200.884 121.622C200.807 121.837 200.667 122.042 200.465 122.238ZM202.343 121.221V114.931H204.904C205.564 114.931 206.073 115.091 206.43 115.412C206.787 115.728 206.965 116.168 206.965 116.733C206.965 117.286 206.787 117.726 206.43 118.053C206.073 118.375 205.564 118.535 204.904 118.535H203.084V121.221H202.343ZM203.084 117.92H204.833C205.291 117.92 205.636 117.815 205.868 117.607C206.105 117.399 206.224 117.108 206.224 116.733C206.224 116.352 206.105 116.058 205.868 115.85C205.636 115.641 205.291 115.537 204.833 115.537H203.084V117.92ZM208.155 121.221V114.931H210.243C210.939 114.931 211.528 115.052 212.01 115.296C212.491 115.534 212.857 115.888 213.107 116.358C213.357 116.822 213.482 117.393 213.482 118.071C213.482 118.743 213.357 119.314 213.107 119.784C212.857 120.254 212.491 120.611 212.01 120.855C211.528 121.099 210.939 121.221 210.243 121.221H208.155ZM208.896 120.587H210.189C211.046 120.587 211.682 120.379 212.099 119.963C212.515 119.541 212.723 118.91 212.723 118.071C212.723 117.227 212.515 116.596 212.099 116.18C211.682 115.763 211.046 115.555 210.189 115.555H208.896V120.587ZM214.821 121.221V114.931H218.747V115.537H215.561V117.741H218.55V118.348H215.561V121.221H214.821ZM219.739 122.238L219.4 121.979C219.56 121.813 219.664 121.655 219.712 121.506C219.766 121.364 219.792 121.218 219.792 121.069L219.953 121.221H219.364V120.311H220.274V120.953C220.274 121.191 220.235 121.414 220.158 121.622C220.081 121.837 219.941 122.042 219.739 122.238ZM222.869 121.221L220.674 114.931H221.45L223.368 120.596H223.056L225.073 114.931H225.661L227.571 120.596H227.285L229.257 114.931H229.989L227.776 121.221H227.116L225.26 115.769H225.447L223.511 121.221H222.869ZM232.315 121.301C231.887 121.301 231.512 121.209 231.191 121.025C230.876 120.834 230.632 120.567 230.459 120.222C230.287 119.871 230.2 119.457 230.2 118.981C230.2 118.5 230.287 118.086 230.459 117.741C230.632 117.396 230.876 117.131 231.191 116.947C231.512 116.757 231.887 116.662 232.315 116.662C232.749 116.662 233.124 116.757 233.439 116.947C233.761 117.131 234.007 117.396 234.18 117.741C234.358 118.086 234.448 118.5 234.448 118.981C234.448 119.457 234.358 119.871 234.18 120.222C234.007 120.567 233.761 120.834 233.439 121.025C233.124 121.209 232.749 121.301 232.315 121.301ZM232.315 120.712C232.743 120.712 233.082 120.567 233.332 120.275C233.582 119.978 233.707 119.546 233.707 118.981C233.707 118.41 233.579 117.979 233.323 117.688C233.073 117.39 232.737 117.241 232.315 117.241C231.893 117.241 231.557 117.39 231.307 117.688C231.057 117.979 230.932 118.41 230.932 118.981C230.932 119.546 231.057 119.978 231.307 120.275C231.557 120.567 231.893 120.712 232.315 120.712ZM235.557 121.221V117.821C235.557 117.643 235.551 117.462 235.539 117.277C235.533 117.093 235.521 116.914 235.503 116.742H236.199L236.288 117.83L236.163 117.839C236.223 117.572 236.327 117.352 236.476 117.179C236.624 117.007 236.8 116.879 237.002 116.795C237.204 116.706 237.415 116.662 237.636 116.662C237.725 116.662 237.802 116.664 237.867 116.67C237.939 116.676 238.004 116.691 238.064 116.715L238.055 117.357C237.966 117.328 237.882 117.31 237.805 117.304C237.734 117.292 237.65 117.286 237.555 117.286C237.293 117.286 237.064 117.349 236.868 117.473C236.678 117.598 236.532 117.759 236.431 117.955C236.336 118.152 236.288 118.36 236.288 118.58V121.221H235.557ZM240.459 121.301C240.066 121.301 239.721 121.209 239.424 121.025C239.126 120.834 238.894 120.567 238.728 120.222C238.567 119.877 238.487 119.463 238.487 118.981C238.487 118.494 238.567 118.077 238.728 117.732C238.894 117.387 239.126 117.123 239.424 116.938C239.721 116.754 240.066 116.662 240.459 116.662C240.863 116.662 241.211 116.763 241.503 116.965C241.8 117.167 241.999 117.441 242.101 117.786H241.993V114.654H242.716V121.221H242.002V120.15H242.101C242.005 120.507 241.809 120.79 241.512 120.998C241.214 121.2 240.863 121.301 240.459 121.301ZM240.61 120.712C241.033 120.712 241.372 120.567 241.628 120.275C241.883 119.978 242.011 119.546 242.011 118.981C242.011 118.41 241.883 117.979 241.628 117.688C241.372 117.39 241.033 117.241 240.61 117.241C240.188 117.241 239.849 117.39 239.593 117.688C239.343 117.979 239.219 118.41 239.219 118.981C239.219 119.546 239.343 119.978 239.593 120.275C239.849 120.567 240.188 120.712 240.61 120.712Z" fill="#676767"/>
<path d="M156.396 32.8892C156.301 33.2298 156.48 33.5964 156.812 33.7021L156.885 33.725L156.888 33.7209C157.199 33.7775 157.5 33.5759 157.588 33.2592C158.405 30.3288 160.976 28.2891 163.833 28.2891C164.183 28.2891 164.454 27.9885 164.454 27.6334C164.454 27.2784 164.183 26.9778 163.833 26.9778C160.304 26.9778 157.345 29.4851 156.396 32.8892ZM156.396 32.8892L156.503 32.9192M156.396 32.8892C156.396 32.8892 156.396 32.8892 156.396 32.8892L156.503 32.9192M156.503 32.9192C156.423 33.2072 156.577 33.5099 156.846 33.5958L156.846 33.5957C157.117 33.682 157.401 33.5168 157.48 33.2293C158.31 30.2547 160.922 28.1775 163.833 28.1775C164.115 28.1775 164.343 27.9338 164.343 27.6334C164.343 27.333 164.115 27.0894 163.833 27.0894C160.36 27.0894 157.441 29.5576 156.503 32.9192Z" fill="#0EBE7F" stroke="#F9FFF9" stroke-width="0.223065"/>
<path d="M170.97 54.2935H167.911C167.63 54.2935 167.401 54.0499 167.401 53.7495C167.401 53.4491 167.63 53.2054 167.911 53.2054H170.97C175.186 53.2054 178.616 49.5441 178.616 45.0442C178.616 40.5444 175.186 36.8831 170.97 36.8831H170.896C170.748 36.8831 170.608 36.8147 170.511 36.6954C170.414 36.5761 170.37 36.4179 170.391 36.2617C170.437 35.9228 170.46 35.5823 170.46 35.2509C170.46 31.351 167.487 28.1778 163.833 28.1778C162.411 28.1778 161.056 28.6519 159.912 29.5493C159.661 29.7463 159.304 29.6589 159.159 29.3639C155.921 22.7829 147.463 21.8992 143.078 27.624C141.231 30.0358 140.505 33.1732 141.087 36.231C141.151 36.5687 140.909 36.8835 140.587 36.8835H140.383C136.167 36.8835 132.736 40.5448 132.736 45.0446C132.736 49.5445 136.167 53.2058 140.383 53.2058H143.442C143.723 53.2058 143.951 53.4495 143.951 53.7499C143.951 54.0503 143.723 54.294 143.442 54.294H140.383C135.605 54.294 131.717 50.1446 131.717 45.0446C131.717 40.0877 135.389 36.0289 139.983 35.805C139.551 32.6326 140.376 29.4327 142.289 26.9354C146.983 20.8056 155.98 21.4927 159.784 28.3278C160.997 27.516 162.385 27.0901 163.833 27.0901C168.26 27.0901 171.768 31.1116 171.461 35.8101C176.012 36.0825 179.636 40.1199 179.636 45.0442C179.636 50.1446 175.748 54.2935 170.97 54.2935Z" fill="#0EBE7F"/>
<path d="M142.752 53.4422C142.752 60.9971 148.512 67.1558 155.608 67.1558C162.703 67.1558 168.464 60.997 168.464 53.4422C168.464 45.8873 162.703 39.7286 155.608 39.7286C148.512 39.7286 142.752 45.8874 142.752 53.4422ZM143.995 53.4422C143.995 46.5969 149.211 41.04 155.608 41.04C162.004 41.04 167.221 46.5968 167.221 53.4422C167.221 60.2875 162.004 65.8443 155.608 65.8443C149.211 65.8443 143.995 60.2876 143.995 53.4422Z" fill="#0EBE7F" stroke="#F9FFF9" stroke-width="0.223065"/>
<path d="M155.356 58.918C155.356 59.1926 155.567 59.4278 155.841 59.4278C156.115 59.4278 156.326 59.1929 156.326 58.918V48.5614C156.326 48.2868 156.115 48.0516 155.841 48.0516C155.567 48.0516 155.356 48.2868 155.356 48.5614V58.918Z" fill="#0EBE7F" stroke="#0EBE7F" stroke-width="0.223065"/>
<path d="M155.841 49.2887L158.481 52.1067C158.575 52.207 158.7 52.2586 158.827 52.2587L155.841 49.2887ZM155.841 49.2887L153.201 52.1066L155.841 49.2887ZM152.51 52.1067C152.7 52.3093 153.011 52.3095 153.201 52.1067L155.577 48.2805L155.496 48.2043L155.496 48.2044L152.51 51.3909C152.324 51.5894 152.324 51.9082 152.51 52.1067Z" fill="#0EBE7F" stroke="#0EBE7F" stroke-width="0.223065"/>
</svg>
