<svg width="24" height="24" viewBox="0 0 24 24" fill="none" xmlns="http://www.w3.org/2000/svg">
<path d="M21.3751 5.08929C21.6251 5.33929 21.8394 5.67857 22.0179 6.10714C22.1965 6.53571 22.2858 6.92857 22.2858 7.28571V22.7143C22.2858 23.0714 22.1608 23.375 21.9108 23.625C21.6608 23.875 21.3572 24 21.0001 24H3.00007C2.64293 24 2.33936 23.875 2.08936 23.625C1.83936 23.375 1.71436 23.0714 1.71436 22.7143V1.28571C1.71436 0.928571 1.83936 0.625 2.08936 0.375C2.33936 0.125 2.64293 0 3.00007 0H15.0001C15.3572 0 15.7501 0.0892857 16.1786 0.267857C16.6072 0.446429 16.9465 0.660714 17.1965 0.910714L21.3751 5.08929ZM15.4286 1.82143V6.85714H20.4644C20.3751 6.59821 20.2769 6.41518 20.1697 6.30804L15.9777 2.11607C15.8706 2.00893 15.6876 1.91071 15.4286 1.82143ZM20.5715 22.2857V8.57143H15.0001C14.6429 8.57143 14.3394 8.44643 14.0894 8.19643C13.8394 7.94643 13.7144 7.64286 13.7144 7.28571V1.71429H3.42864V22.2857H20.5715ZM18.8572 16.2857V20.5714H5.14293V18L7.71436 15.4286L9.42864 17.1429L14.5715 12L18.8572 16.2857ZM7.71436 13.7143C7.00007 13.7143 6.39293 13.4643 5.89293 12.9643C5.39293 12.4643 5.14293 11.8571 5.14293 11.1429C5.14293 10.4286 5.39293 9.82143 5.89293 9.32143C6.39293 8.82143 7.00007 8.57143 7.71436 8.57143C8.42864 8.57143 9.03578 8.82143 9.53578 9.32143C10.0358 9.82143 10.2858 10.4286 10.2858 11.1429C10.2858 11.8571 10.0358 12.4643 9.53578 12.9643C9.03578 13.4643 8.42864 13.7143 7.71436 13.7143Z" fill="#A1A8B0"/>
</svg>
