<svg width="20" height="19" viewBox="0 0 20 19" fill="none" xmlns="http://www.w3.org/2000/svg">
<path d="M2.07357 17.6429V14.5893H5.39879V17.6429H2.07357ZM6.13772 17.6429V14.5893H9.8324V17.6429H6.13772ZM2.07357 13.9107V10.5179H5.39879V13.9107H2.07357ZM6.13772 13.9107V10.5179H9.8324V13.9107H6.13772ZM2.07357 9.83929V6.78571H5.39879V9.83929H2.07357ZM10.5713 17.6429V14.5893H14.266V17.6429H10.5713ZM6.13772 9.83929V6.78571H9.8324V9.83929H6.13772ZM15.0049 17.6429V14.5893H18.3302V17.6429H15.0049ZM10.5713 13.9107V10.5179H14.266V13.9107H10.5713ZM6.50719 4.75C6.50719 4.93025 6.334 5.08929 6.13772 5.08929H5.39879C5.20251 5.08929 5.02932 4.93025 5.02932 4.75V1.69643C5.02932 1.51618 5.20251 1.35714 5.39879 1.35714H6.13772C6.334 1.35714 6.50719 1.51618 6.50719 1.69643V4.75ZM15.0049 13.9107V10.5179H18.3302V13.9107H15.0049ZM10.5713 9.83929V6.78571H14.266V9.83929H10.5713ZM15.0049 9.83929V6.78571H18.3302V9.83929H15.0049ZM15.3744 4.75C15.3744 4.93025 15.2012 5.08929 15.0049 5.08929H14.266C14.0697 5.08929 13.8965 4.93025 13.8965 4.75V1.69643C13.8965 1.51618 14.0697 1.35714 14.266 1.35714H15.0049C15.2012 1.35714 15.3744 1.51618 15.3744 1.69643V4.75ZM19.808 4.07143C19.808 3.32924 19.1384 2.71429 18.3302 2.71429H16.8523V1.69643C16.8523 0.763393 16.021 0 15.0049 0H14.266C13.25 0 12.4187 0.763393 12.4187 1.69643V2.71429H7.98506V1.69643C7.98506 0.763393 7.15376 0 6.13772 0H5.39879C4.38275 0 3.55145 0.763393 3.55145 1.69643V2.71429H2.07357C1.26536 2.71429 0.595703 3.32924 0.595703 4.07143V17.6429C0.595703 18.385 1.26536 19 2.07357 19H18.3302C19.1384 19 19.808 18.385 19.808 17.6429V4.07143Z" fill="#878787"/>
</svg>
