<svg width="30" height="30" viewBox="0 0 30 30" fill="none" xmlns="http://www.w3.org/2000/svg">
<circle cx="15" cy="15" r="15" fill="white"/>
<path d="M16.117 15.0002L21.0842 10.0328C21.3928 9.72447 21.3928 9.22415 21.0842 8.91579C20.7756 8.60717 20.2758 8.60717 19.9672 8.91579L15 13.8832L10.0325 8.91579C9.72392 8.60717 9.22415 8.60717 8.91554 8.91579C8.60693 9.22415 8.60693 9.72447 8.91554 10.0328L13.883 15.0002L8.91554 19.9677C8.60693 20.276 8.60693 20.7763 8.91554 21.0847C9.06984 21.2387 9.27207 21.3159 9.47403 21.3159C9.676 21.3159 9.87822 21.2387 10.0325 21.0844L15 16.117L19.9672 21.0844C20.1215 21.2387 20.3237 21.3159 20.5257 21.3159C20.7277 21.3159 20.9299 21.2387 21.0842 21.0844C21.3928 20.7761 21.3928 20.2758 21.0842 19.9674L16.117 15.0002Z" fill="black"/>
</svg>
