<svg width="60" height="60" viewBox="0 0 60 60" fill="none" xmlns="http://www.w3.org/2000/svg">
<g filter="url(#filter0_d_488_254)">
<rect x="5" y="1" width="50" height="50" rx="7" fill="white"/>
<rect x="4.75" y="0.75" width="50.5" height="50.5" rx="7.25" stroke="#0EBE7F" stroke-width="0.5"/>
<path d="M36.3227 27.1064C35.3187 26.1039 33.5731 26.1039 32.5691 27.1064L31.9541 27.7205C31.6284 28.0457 31.0858 28.0457 30.7601 27.7205L28.2909 25.2549C27.9653 24.9298 27.9653 24.3879 28.2909 24.0627L28.9059 23.4486C29.9371 22.419 29.9371 20.7391 28.9059 19.7005L27.0518 17.849C26.0478 16.8465 24.3021 16.8465 23.2981 17.849L21.7786 19.3663C21.1455 19.9985 20.8741 20.9017 21.055 21.7868C21.661 24.8033 23.3343 27.8108 25.7674 30.2403C28.2004 32.6698 31.2033 34.3407 34.2334 34.9458C34.4143 34.9819 34.5861 35 34.767 35C35.4725 35 36.1509 34.7291 36.6483 34.2233L38.1679 32.706C38.6653 32.2092 38.9457 31.5409 38.9457 30.8364C38.9457 30.132 38.6653 29.4636 38.1679 28.9669L36.3137 27.1154L36.3227 27.1064ZM36.9016 31.4235L35.3821 32.9408C35.1831 33.1395 34.8846 33.2298 34.5952 33.1666C31.9179 32.6337 29.2406 31.1345 27.0518 28.9488C24.8629 26.7632 23.3705 24.0988 22.8278 21.4255C22.7735 21.1365 22.8549 20.8475 23.0539 20.6397L24.5735 19.1224C24.7363 18.9599 24.9443 18.8786 25.1704 18.8786C25.3965 18.8786 25.6046 18.9689 25.7674 19.1224L27.6216 20.9739C27.9472 21.299 27.9472 21.8409 27.6216 22.1661L27.0065 22.7802C25.9754 23.8098 25.9754 25.4897 27.0065 26.5283L29.4758 28.994C30.5069 30.0236 32.1892 30.0236 33.2294 28.994L33.8444 28.3798C34.17 28.0547 34.7037 28.0547 35.0384 28.3798L36.8926 30.2313C37.0554 30.3848 37.1368 30.6016 37.1368 30.8274C37.1368 31.0532 37.0463 31.2609 36.8926 31.4235H36.9016ZM32.6686 17.9032C32.6686 17.4064 33.0756 17 33.5731 17C36.5669 17 39 19.4295 39 22.419C39 22.9157 38.593 23.3221 38.0955 23.3221C37.598 23.3221 37.191 22.9157 37.191 22.419C37.191 20.423 35.572 18.8063 33.5731 18.8063C33.0756 18.8063 32.6686 18.3999 32.6686 17.9032ZM32.6686 21.5158C32.6686 21.0191 33.0756 20.6126 33.5731 20.6126C34.568 20.6126 35.3821 21.4255 35.3821 22.419C35.3821 22.9157 34.975 23.3221 34.4776 23.3221C33.9801 23.3221 33.5731 22.9157 33.5731 22.419C33.0756 22.419 32.6686 22.0125 32.6686 21.5158Z" fill="#0EBE7F"/>
</g>
<defs>
<filter id="filter0_d_488_254" x="0.5" y="0.5" width="59" height="59" filterUnits="userSpaceOnUse" color-interpolation-filters="sRGB">
<feFlood flood-opacity="0" result="BackgroundImageFix"/>
<feColorMatrix in="SourceAlpha" type="matrix" values="0 0 0 0 0 0 0 0 0 0 0 0 0 0 0 0 0 0 127 0" result="hardAlpha"/>
<feOffset dy="4"/>
<feGaussianBlur stdDeviation="2"/>
<feComposite in2="hardAlpha" operator="out"/>
<feColorMatrix type="matrix" values="0 0 0 0 0 0 0 0 0 0 0 0 0 0 0 0 0 0 0.25 0"/>
<feBlend mode="normal" in2="BackgroundImageFix" result="effect1_dropShadow_488_254"/>
<feBlend mode="normal" in="SourceGraphic" in2="effect1_dropShadow_488_254" result="shape"/>
</filter>
</defs>
</svg>
