<svg width="37" height="34" viewBox="0 0 37 34" fill="none" xmlns="http://www.w3.org/2000/svg">
<g filter="url(#filter0_d_4418_317)">
<rect x="5.16675" y="1" width="26.8333" height="24" rx="7" fill="white"/>
<rect x="4.91675" y="0.75" width="27.3333" height="24.5" rx="7.25" stroke="#A1A8B0" stroke-width="0.5"/>
<path d="M15.9963 12.3497C15.8679 12.3497 15.7424 12.3879 15.6357 12.4593C15.5289 12.5307 15.4458 12.6322 15.3966 12.751C15.3475 12.8697 15.3346 13.0004 15.3597 13.1265C15.3847 13.2526 15.4466 13.3684 15.5373 13.4593C15.6281 13.5502 15.7438 13.6121 15.8697 13.6372C15.9956 13.6623 16.1261 13.6494 16.2447 13.6002C16.3633 13.551 16.4647 13.4677 16.536 13.3608C16.6073 13.2539 16.6454 13.1283 16.6454 12.9997C16.6454 12.8273 16.577 12.662 16.4553 12.5401C16.3335 12.4182 16.1685 12.3497 15.9963 12.3497ZM18.5926 12.3497C18.4643 12.3497 18.3388 12.3879 18.232 12.4593C18.1253 12.5307 18.0421 12.6322 17.993 12.751C17.9438 12.8697 17.931 13.0004 17.956 13.1265C17.9811 13.2526 18.0429 13.3684 18.1337 13.4593C18.2244 13.5502 18.3401 13.6121 18.466 13.6372C18.5919 13.6623 18.7224 13.6494 18.841 13.6002C18.9596 13.551 19.061 13.4677 19.1323 13.3608C19.2037 13.2539 19.2417 13.1283 19.2417 12.9997C19.2417 12.8273 19.1733 12.662 19.0516 12.5401C18.9299 12.4182 18.7648 12.3497 18.5926 12.3497ZM21.189 12.3497C21.0606 12.3497 20.9351 12.3879 20.8284 12.4593C20.7216 12.5307 20.6384 12.6322 20.5893 12.751C20.5402 12.8697 20.5273 13.0004 20.5524 13.1265C20.5774 13.2526 20.6392 13.3684 20.73 13.4593C20.8208 13.5502 20.9364 13.6121 21.0624 13.6372C21.1883 13.6623 21.3188 13.6494 21.4374 13.6002C21.556 13.551 21.6574 13.4677 21.7287 13.3608C21.8 13.2539 21.8381 13.1283 21.8381 12.9997C21.8381 12.8273 21.7697 12.662 21.648 12.5401C21.5262 12.4182 21.3611 12.3497 21.189 12.3497ZM18.5926 6.5C17.7403 6.5 16.8962 6.66812 16.1087 6.99476C15.3212 7.3214 14.6056 7.80017 14.0029 8.40372C12.7856 9.62265 12.1018 11.2759 12.1018 12.9997C12.0961 14.5006 12.6151 15.9561 13.5687 17.114L12.2706 18.414C12.1805 18.5054 12.1195 18.6214 12.0952 18.7475C12.071 18.8736 12.0845 19.0041 12.1342 19.1224C12.1882 19.2394 12.2756 19.3377 12.3853 19.4048C12.4951 19.4719 12.6224 19.5048 12.7509 19.4994H18.5926C20.3141 19.4994 21.9651 18.8146 23.1824 17.5957C24.3996 16.3768 25.0835 14.7235 25.0835 12.9997C25.0835 11.2759 24.3996 9.62265 23.1824 8.40372C21.9651 7.18479 20.3141 6.5 18.5926 6.5ZM18.5926 18.1995H14.3152L14.9188 17.595C14.9802 17.5348 15.0289 17.463 15.0624 17.3838C15.0958 17.3046 15.1132 17.2195 15.1135 17.1335C15.1111 16.9621 15.0411 16.7986 14.9188 16.6785C14.0689 15.8284 13.5396 14.7095 13.4212 13.5124C13.3027 12.3153 13.6024 11.1141 14.2692 10.1135C14.936 9.11291 15.9287 8.37475 17.078 8.02481C18.2274 7.67488 19.4623 7.73482 20.5725 8.19442C21.6827 8.65402 22.5994 9.48485 23.1664 10.5454C23.7334 11.6059 23.9157 12.8304 23.6822 14.0104C23.4487 15.1904 22.8138 16.2528 21.8858 17.0167C20.9578 17.7805 19.7939 18.1985 18.5926 18.1995Z" fill="#C5BDBD"/>
</g>
<defs>
<filter id="filter0_d_4418_317" x="0.666748" y="0.5" width="35.8333" height="33" filterUnits="userSpaceOnUse" color-interpolation-filters="sRGB">
<feFlood flood-opacity="0" result="BackgroundImageFix"/>
<feColorMatrix in="SourceAlpha" type="matrix" values="0 0 0 0 0 0 0 0 0 0 0 0 0 0 0 0 0 0 127 0" result="hardAlpha"/>
<feOffset dy="4"/>
<feGaussianBlur stdDeviation="2"/>
<feComposite in2="hardAlpha" operator="out"/>
<feColorMatrix type="matrix" values="0 0 0 0 0 0 0 0 0 0 0 0 0 0 0 0 0 0 0.25 0"/>
<feBlend mode="normal" in2="BackgroundImageFix" result="effect1_dropShadow_4418_317"/>
<feBlend mode="normal" in="SourceGraphic" in2="effect1_dropShadow_4418_317" result="shape"/>
</filter>
</defs>
</svg>
