<svg width="36" height="34" viewBox="0 0 36 34" fill="none" xmlns="http://www.w3.org/2000/svg">
<g filter="url(#filter0_d_4418_315)">
<rect x="4.58325" y="1" width="26.8333" height="24" rx="7" fill="white"/>
<rect x="4.33325" y="0.75" width="27.3333" height="24.5" rx="7.25" stroke="#A1A8B0" stroke-width="0.5"/>
<path d="M22.2152 13.7376C21.5458 13.0692 20.3821 13.0692 19.7127 13.7376L19.3027 14.147C19.0856 14.3638 18.7238 14.3638 18.5068 14.147L16.8606 12.5033C16.6435 12.2865 16.6435 11.9252 16.8606 11.7085L17.2706 11.299C17.958 10.6126 17.958 9.49272 17.2706 8.8003L16.0345 7.56598C15.3652 6.89764 14.2014 6.89764 13.5321 7.56598L12.5191 8.57752C12.097 8.999 11.9161 9.6011 12.0367 10.1912C12.4407 12.2022 13.5562 14.2072 15.1783 15.8269C16.8003 17.4466 18.8022 18.5605 20.8222 18.9639C20.9428 18.988 21.0574 19 21.178 19C21.6483 19 22.1006 18.8194 22.4322 18.4822L23.4452 17.4706C23.7769 17.1395 23.9638 16.6939 23.9638 16.2243C23.9638 15.7546 23.7769 15.3091 23.4452 14.9779L22.2091 13.7436L22.2152 13.7376ZM22.6011 16.6157L21.588 17.6272C21.4554 17.7597 21.2564 17.8199 21.0634 17.7777C19.2786 17.4225 17.4937 16.423 16.0345 14.9659C14.5753 13.5088 13.5803 11.7326 13.2185 9.95033C13.1824 9.75765 13.2366 9.56498 13.3693 9.42649L14.3823 8.41495C14.4908 8.30657 14.6295 8.25238 14.7803 8.25238C14.931 8.25238 15.0697 8.31259 15.1783 8.41495L16.4144 9.64927C16.6315 9.86603 16.6315 10.2273 16.4144 10.4441L16.0044 10.8535C15.3169 11.5399 15.3169 12.6598 16.0044 13.3522L17.6505 14.996C18.3379 15.6824 19.4595 15.6824 20.1529 14.996L20.563 14.5866C20.78 14.3698 21.1358 14.3698 21.3589 14.5866L22.595 15.8209C22.7036 15.9232 22.7578 16.0677 22.7578 16.2183C22.7578 16.3688 22.6975 16.5073 22.595 16.6157H22.6011ZM19.7791 7.60211C19.7791 7.27095 20.0504 7 20.3821 7C22.378 7 24 8.61967 24 10.6126C24 10.9438 23.7287 11.2148 23.397 11.2148C23.0654 11.2148 22.794 10.9438 22.794 10.6126C22.794 9.28199 21.7147 8.20421 20.3821 8.20421C20.0504 8.20421 19.7791 7.93327 19.7791 7.60211ZM19.7791 10.0105C19.7791 9.67938 20.0504 9.40843 20.3821 9.40843C21.0453 9.40843 21.588 9.95033 21.588 10.6126C21.588 10.9438 21.3167 11.2148 20.985 11.2148C20.6534 11.2148 20.3821 10.9438 20.3821 10.6126C20.0504 10.6126 19.7791 10.3417 19.7791 10.0105Z" fill="#A1A8B0"/>
</g>
<defs>
<filter id="filter0_d_4418_315" x="0.083252" y="0.5" width="35.8333" height="33" filterUnits="userSpaceOnUse" color-interpolation-filters="sRGB">
<feFlood flood-opacity="0" result="BackgroundImageFix"/>
<feColorMatrix in="SourceAlpha" type="matrix" values="0 0 0 0 0 0 0 0 0 0 0 0 0 0 0 0 0 0 127 0" result="hardAlpha"/>
<feOffset dy="4"/>
<feGaussianBlur stdDeviation="2"/>
<feComposite in2="hardAlpha" operator="out"/>
<feColorMatrix type="matrix" values="0 0 0 0 0 0 0 0 0 0 0 0 0 0 0 0 0 0 0.25 0"/>
<feBlend mode="normal" in2="BackgroundImageFix" result="effect1_dropShadow_4418_315"/>
<feBlend mode="normal" in="SourceGraphic" in2="effect1_dropShadow_4418_315" result="shape"/>
</filter>
</defs>
</svg>
