<svg width="60" height="60" viewBox="0 0 60 60" fill="none" xmlns="http://www.w3.org/2000/svg">
<g filter="url(#filter0_d_488_290)">
<rect x="5" y="1" width="50" height="50" rx="7" fill="white"/>
<rect x="4.75" y="0.75" width="50.5" height="50.5" rx="7.25" stroke="#0EBE7F" stroke-width="0.5"/>
<path d="M26.4177 25.0996C26.24 25.0996 26.0662 25.1524 25.9184 25.2513C25.7706 25.3502 25.6554 25.4908 25.5874 25.6552C25.5194 25.8196 25.5016 26.0006 25.5363 26.1752C25.5709 26.3498 25.6565 26.5101 25.7822 26.636C25.9079 26.7618 26.0681 26.8475 26.2424 26.8823C26.4167 26.917 26.5974 26.8992 26.7617 26.8311C26.9259 26.7629 27.0662 26.6476 27.165 26.4996C27.2638 26.3516 27.3165 26.1776 27.3165 25.9996C27.3165 25.7609 27.2218 25.532 27.0532 25.3632C26.8847 25.1945 26.6561 25.0996 26.4177 25.0996ZM30.0127 25.0996C29.8349 25.0996 29.6612 25.1524 29.5134 25.2513C29.3656 25.3502 29.2504 25.4908 29.1823 25.6552C29.1143 25.8196 29.0965 26.0006 29.1312 26.1752C29.1659 26.3498 29.2515 26.5101 29.3772 26.636C29.5029 26.7618 29.663 26.8475 29.8373 26.8823C30.0117 26.917 30.1924 26.8992 30.3566 26.8311C30.5208 26.7629 30.6612 26.6476 30.7599 26.4996C30.8587 26.3516 30.9114 26.1776 30.9114 25.9996C30.9114 25.7609 30.8167 25.532 30.6482 25.3632C30.4796 25.1945 30.251 25.0996 30.0127 25.0996ZM33.6076 25.0996C33.4298 25.0996 33.2561 25.1524 33.1083 25.2513C32.9605 25.3502 32.8453 25.4908 32.7773 25.6552C32.7093 25.8196 32.6915 26.0006 32.7261 26.1752C32.7608 26.3498 32.8464 26.5101 32.9721 26.636C33.0978 26.7618 33.2579 26.8475 33.4323 26.8823C33.6066 26.917 33.7873 26.8992 33.9515 26.8311C34.1158 26.7629 34.2561 26.6476 34.3549 26.4996C34.4536 26.3516 34.5063 26.1776 34.5063 25.9996C34.5063 25.7609 34.4116 25.532 34.2431 25.3632C34.0746 25.1945 33.846 25.0996 33.6076 25.0996ZM30.0127 17C28.8324 17 27.6638 17.2328 26.5734 17.6851C25.483 18.1373 24.4922 18.8002 23.6577 19.6359C21.9722 21.3237 21.0253 23.6128 21.0253 25.9996C21.0175 28.0777 21.736 30.0931 23.0565 31.6963L21.259 33.4963C21.1343 33.6228 21.0498 33.7835 21.0162 33.9581C20.9826 34.1327 21.0014 34.3133 21.0703 34.4772C21.1449 34.6392 21.2659 34.7752 21.4179 34.8682C21.57 34.9611 21.7461 35.0067 21.9241 34.9992H30.0127C32.3963 34.9992 34.6822 34.051 36.3677 32.3633C38.0531 30.6755 39 28.3864 39 25.9996C39 23.6128 38.0531 21.3237 36.3677 19.6359C34.6822 17.9482 32.3963 17 30.0127 17ZM30.0127 33.1993H24.09L24.9258 32.3623C25.0108 32.279 25.0783 32.1796 25.1246 32.0699C25.1709 31.9602 25.195 31.8424 25.1955 31.7233C25.1921 31.486 25.0952 31.2595 24.9258 31.0934C23.749 29.9163 23.0162 28.367 22.8522 26.7095C22.6882 25.052 23.1032 23.3888 24.0264 22.0033C24.9497 20.6179 26.3241 19.5958 27.9155 19.1113C29.5069 18.6268 31.2168 18.7097 32.754 19.3461C34.2912 19.9825 35.5604 21.1329 36.3455 22.6013C37.1307 24.0696 37.3831 25.7652 37.0597 27.399C36.7364 29.0329 35.8574 30.5039 34.5724 31.5616C33.2874 32.6192 31.676 33.198 30.0127 33.1993Z" fill="#0EBE7F"/>
</g>
<defs>
<filter id="filter0_d_488_290" x="0.5" y="0.5" width="59" height="59" filterUnits="userSpaceOnUse" color-interpolation-filters="sRGB">
<feFlood flood-opacity="0" result="BackgroundImageFix"/>
<feColorMatrix in="SourceAlpha" type="matrix" values="0 0 0 0 0 0 0 0 0 0 0 0 0 0 0 0 0 0 127 0" result="hardAlpha"/>
<feOffset dy="4"/>
<feGaussianBlur stdDeviation="2"/>
<feComposite in2="hardAlpha" operator="out"/>
<feColorMatrix type="matrix" values="0 0 0 0 0 0 0 0 0 0 0 0 0 0 0 0 0 0 0.25 0"/>
<feBlend mode="normal" in2="BackgroundImageFix" result="effect1_dropShadow_488_290"/>
<feBlend mode="normal" in="SourceGraphic" in2="effect1_dropShadow_488_290" result="shape"/>
</filter>
</defs>
</svg>
