<svg width="21" height="22" viewBox="0 0 21 22" fill="none" xmlns="http://www.w3.org/2000/svg">
<path d="M18.2064 3.15272C18.2064 2.37885 17.581 1.75151 16.8094 1.75151H16.4601V2.80242C16.4601 3.18935 16.1474 3.50303 15.7616 3.50303H15.0631C15.4489 3.50303 15.7616 3.18935 15.7616 2.80242V0.700605C15.7616 0.313657 15.4489 0 15.0631 0C14.6773 0 14.3646 0.313657 14.3646 0.700605V1.75151H12.6183V2.80242C12.6183 3.18935 12.3055 3.50303 11.9198 3.50303H11.2212C11.607 3.50303 11.9198 3.18935 11.9198 2.80242V0.700605C11.9198 0.313657 11.607 0 11.2212 0C10.8355 0 10.5227 0.313657 10.5227 0.700605V1.75151H8.42716V2.80242C8.42716 3.18935 8.11442 3.50303 7.72864 3.50303H7.03012C7.4159 3.50303 7.72864 3.18935 7.72864 2.80242V0.700605C7.72864 0.313657 7.4159 0 7.03012 0C6.64435 0 6.3316 0.313657 6.3316 0.700605V1.75151H4.5853V2.80242C4.5853 3.18935 4.27256 3.50303 3.88678 3.50303H3.18826C3.57404 3.50303 3.88678 3.18935 3.88678 2.80242V0.700605C3.88678 0.313657 3.57404 0 3.18826 0C2.80249 0 2.48974 0.313657 2.48974 0.700605V1.75151H1.44196C0.670387 1.75151 0.0449219 2.37885 0.0449219 3.15272V5.25454H18.2064V3.15272Z" fill="white"/>
<path d="M17.1583 13.3115C15.0365 13.3115 13.3164 15.0367 13.3164 17.1649C13.3164 19.293 15.0365 21.0182 17.1583 21.0182C19.2801 21.0182 21.0001 19.293 21.0001 17.1649C21.0001 15.0367 19.2801 13.3115 17.1583 13.3115ZM17.1583 17.8655C17.0688 17.8655 16.984 17.8471 16.9054 17.8163L15.6303 18.8397L15.1937 18.2924L16.4702 17.2684C16.4651 17.2343 16.4597 17.2003 16.4597 17.1649C16.4597 16.9062 16.6011 16.6828 16.809 16.5614V14.3624H17.5075V16.5614C17.7154 16.6828 17.8568 16.9062 17.8568 17.1649C17.8568 17.5518 17.544 17.8655 17.1583 17.8655Z" fill="white"/>
<path d="M1.44147 18.9163H12.9669C12.7426 18.377 12.6178 17.7856 12.6178 17.1648C12.6178 15.2707 13.7712 13.6476 15.4115 12.9611H13.6656V10.8593H15.7611V12.8328C16.2015 12.69 16.6704 12.6108 17.1582 12.6108C17.5194 12.6108 17.8691 12.6576 18.206 12.7376V5.95508H0.0444336V17.5151C0.0444336 18.2892 0.669602 18.9163 1.44147 18.9163ZM13.6656 7.00599H15.7611V9.1078H13.6656V7.00599ZM9.82371 7.00599H11.9193V9.1078H9.82371V7.00599ZM9.82371 10.8593H11.9193V12.9611H9.82371V10.8593ZM9.82371 14.7126H11.9193V16.8145H9.82371V14.7126ZM5.98185 7.00599H8.07741V9.1078H5.98185V7.00599ZM5.98185 10.8593H8.07741V12.9611H5.98185V10.8593ZM5.98185 14.7126H8.07741V16.8145H5.98185V14.7126ZM2.13999 7.00599H4.23555V9.1078H2.13999V7.00599ZM2.13999 10.8593H4.23555V12.9611H2.13999V10.8593ZM2.13999 14.7126H4.23555V16.8145H2.13999V14.7126Z" fill="white"/>
</svg>
