<svg width="26" height="16" viewBox="0 0 26 16" fill="none" xmlns="http://www.w3.org/2000/svg">
<path d="M3.74078 0.592529H13.9257C15.7155 0.592529 17.1665 2.04342 17.1665 3.83316V12.1667C17.1665 13.9565 15.7155 15.4073 13.9257 15.4073H3.74078C1.95089 15.4073 0.5 13.9565 0.5 12.1667V3.83316C0.5 2.04342 1.95089 0.592529 3.74078 0.592529ZM3.74078 2.44438C2.97364 2.44438 2.35182 3.06617 2.35182 3.8332V12.1667C2.35182 12.9338 2.9736 13.5556 3.74078 13.5556H13.9257C14.6928 13.5556 15.3147 12.9338 15.3147 12.1667V3.8332C15.3147 3.06617 14.6928 2.44438 13.9257 2.44438H3.74078ZM19.6697 3.40324L22.7561 2.53774C23.905 2.21561 25.0975 2.88567 25.4198 4.03466C25.4729 4.22453 25.5 4.4208 25.5 4.61795V11.3822C25.5 12.5754 24.5326 13.5428 23.3396 13.5428C23.1423 13.5428 22.946 13.5157 22.7562 13.4626L19.6697 12.5969C18.7372 12.3355 18.0927 11.4853 18.0927 10.5167V5.48351C18.0927 4.51505 18.7372 3.66481 19.6697 3.40324ZM20.1698 5.1863C20.0366 5.22369 19.9445 5.3452 19.9445 5.48345V10.5167C19.9445 10.655 20.0366 10.7766 20.1698 10.8138L23.2561 11.6794C23.2834 11.687 23.3114 11.6909 23.3396 11.6909C23.5099 11.6909 23.6482 11.5526 23.6482 11.3822V4.61789C23.6482 4.58971 23.6443 4.56167 23.6367 4.5346C23.5907 4.3704 23.4203 4.2747 23.2562 4.32074L20.1698 5.1863Z" fill="#A1A8B0"/>
</svg>
