<svg width="42" height="37" viewBox="0 0 42 37" fill="none" xmlns="http://www.w3.org/2000/svg">
<path d="M10.6968 19.1293H14.2384C14.6987 19.1293 15.0718 19.5162 15.0718 19.9935V23.0163C15.0718 23.8684 16.135 24.2063 16.5954 23.5005L23.1315 13.4805C23.5919 12.7747 24.6551 13.1126 24.6551 13.9647V18.2651C24.6551 18.7423 25.0282 19.1293 25.4884 19.1293H29.8634" stroke="#0DC184" stroke-width="2" stroke-linecap="round" stroke-linejoin="round"/>
<path d="M37.9154 4.54318C36.9383 3.41987 35.7778 2.52879 34.5005 1.92087C33.2233 1.31291 31.8543 1 30.4717 1C29.0892 1 27.7202 1.31291 26.443 1.92087C25.1658 2.52879 24.0053 3.41987 23.0279 4.54318C21.9398 5.79304 20.0591 5.79304 18.9711 4.54318C16.9968 2.27526 14.3192 1.00118 11.5272 1.00118C8.73521 1.00118 6.05758 2.27526 4.08333 4.54318C2.10912 6.81106 1 9.88699 1 13.0943C1 16.3016 2.10912 19.3775 4.08333 21.6454L6.11175 23.9756L13.6039 32.5821C17.5709 37.1393 24.428 37.1393 28.3951 32.5821L35.8872 23.9756L37.9154 21.6454C38.8933 20.5227 39.6692 19.1896 40.1983 17.7224C40.7275 16.2551 41 14.6825 41 13.0943C41 11.5061 40.7275 9.93347 40.1983 8.46623C39.6692 6.99899 38.8933 5.66593 37.9154 4.54318Z" stroke="#0DC184" stroke-width="2" stroke-linecap="round" stroke-linejoin="round"/>
</svg>
