<svg width="156" height="156" viewBox="0 0 156 156" fill="none" xmlns="http://www.w3.org/2000/svg">
<circle cx="78" cy="78" r="78" fill="#E7F8F2"/>
<path d="M49.5 71.7083C45.366 71.7083 42 75.0743 42 79.2082V103.208C42 107.342 45.366 110.708 49.5 110.708H58.5C60.189 110.708 61.7429 110.138 63 109.19V71.7083H49.5Z" fill="#0EBE7F"/>
<path d="M114 82.9583C114 81.1553 113.286 79.4753 112.047 78.2362C113.448 76.7033 114.162 74.6482 113.967 72.5092C113.616 68.6962 110.181 65.7082 106.143 65.7082H87.612C88.53 62.9211 89.9999 57.8122 89.9999 53.7082C89.9999 47.2012 84.471 41.7083 80.9999 41.7083C77.883 41.7083 75.6569 43.4633 75.561 43.5353C75.207 43.8203 75 44.2523 75 44.7082V54.8812L66.36 73.5983L66 73.7812V105.935C68.442 107.087 71.5319 107.708 73.5 107.708H101.037C104.304 107.708 107.163 105.506 107.835 102.467C108.18 100.904 107.979 99.3293 107.292 97.9613C109.509 96.8453 111 94.5622 111 91.9583C111 90.8963 110.757 89.8793 110.295 88.9583C112.512 87.8423 114 85.5593 114 82.9583Z" fill="#0EBE7F"/>
</svg>
