<svg width="25" height="26" viewBox="0 0 25 26" fill="none" xmlns="http://www.w3.org/2000/svg">
<circle cx="12.5" cy="12.8547" r="12.5" fill="white"/>
<path d="M11.9974 5.85054C13.7674 5.85054 15.2059 7.17872 15.2059 8.81302C15.2059 10.4473 13.7674 11.7755 11.9974 11.7755C10.2273 11.7755 8.78882 10.4473 8.78882 8.81302C8.7915 7.17872 10.23 5.85054 11.9974 5.85054ZM11.9974 12.8519C14.4091 12.8519 16.3717 11.0398 16.3717 8.81302C16.3717 6.58622 14.4091 4.77417 11.9974 4.77417C9.58561 4.77417 7.62305 6.58622 7.62305 8.81302C7.62305 11.0398 9.58561 12.8519 11.9974 12.8519Z" fill="#4A4A4A"/>
<path d="M15.4947 12.6467C15.1524 12.9134 14.7727 13.138 14.3663 13.3207C16.238 14.0909 17.5936 15.7401 17.8048 17.6978H6.19519C6.40642 15.7376 7.76203 14.0909 9.63369 13.3207C9.22727 13.138 8.84759 12.9134 8.50267 12.6467C6.41176 13.7651 5 15.8487 5 18.2359V18.7741H19V18.2359C18.9973 15.8487 17.5856 13.7651 15.4947 12.6467Z" fill="#4A4A4A"/>
</svg>
