<svg width="15" height="15" viewBox="0 0 15 15" fill="none" xmlns="http://www.w3.org/2000/svg">
<path d="M6.5625 0H14.0625C14.5802 0 15 0.419783 15 0.93751V14.0625C15 14.5803 14.5802 15 14.0625 15H6.56247C6.04474 15 5.62496 14.5803 5.62496 14.0625V0.93751C5.62499 0.419783 6.04474 0 6.5625 0V0ZM8.43749 8.4375C8.95527 8.4375 9.375 8.01772 9.375 7.49999C9.375 6.98221 8.95527 6.56248 8.43749 6.56248C7.91971 6.56248 7.49998 6.98221 7.49998 7.49999C7.49998 8.01775 7.91971 8.4375 8.43749 8.4375Z" fill="white"/>
<path d="M9.05991e-06 7.50024L3.28125 4.68774V6.56273H4.6875V8.43773H3.28125V10.3127L9.05991e-06 7.50024Z" fill="white"/>
</svg>
