<svg width="21" height="22" viewBox="0 0 21 22" fill="none" xmlns="http://www.w3.org/2000/svg">
<path fill-rule="evenodd" clip-rule="evenodd" d="M0.5 1C0.5 0.867392 0.552678 0.740215 0.646447 0.646447C0.740215 0.552678 0.867392 0.5 1 0.5H15C15.1326 0.5 15.2598 0.552678 15.3536 0.646447C15.4473 0.740215 15.5 0.867392 15.5 1V21C15.5 21.1326 15.4473 21.2598 15.3536 21.3536C15.2598 21.4473 15.1326 21.5 15 21.5H1C0.867392 21.5 0.740215 21.4473 0.646447 21.3536C0.552678 21.2598 0.5 21.1326 0.5 21V1ZM1.5 1.5V20.5H14.5V1.5H1.5Z" fill="white"/>
<path fill-rule="evenodd" clip-rule="evenodd" d="M8 6.5C7.60218 6.5 7.22064 6.65804 6.93934 6.93934C6.65804 7.22064 6.5 7.60218 6.5 8C6.5 8.39782 6.65804 8.77936 6.93934 9.06066C7.22064 9.34196 7.60218 9.5 8 9.5C8.39782 9.5 8.77936 9.34196 9.06066 9.06066C9.34196 8.77936 9.5 8.39782 9.5 8C9.5 7.60218 9.34196 7.22064 9.06066 6.93934C8.77936 6.65804 8.39782 6.5 8 6.5ZM5.5 8C5.5 7.33696 5.76339 6.70107 6.23223 6.23223C6.70107 5.76339 7.33696 5.5 8 5.5C8.66304 5.5 9.29893 5.76339 9.76777 6.23223C10.2366 6.70107 10.5 7.33696 10.5 8C10.5 8.66304 10.2366 9.29893 9.76777 9.76777C9.29893 10.2366 8.66304 10.5 8 10.5C7.33696 10.5 6.70107 10.2366 6.23223 9.76777C5.76339 9.29893 5.5 8.66304 5.5 8ZM4.535 15.5H11.465C11.3446 14.6669 10.9281 13.9051 10.2917 13.3541C9.65534 12.8031 8.84176 12.4998 8 12.4998C7.15824 12.4998 6.34466 12.8031 5.7083 13.3541C5.07194 13.9051 4.6554 14.6669 4.535 15.5ZM3.5 16C3.5 14.8065 3.97411 13.6619 4.81802 12.818C5.66193 11.9741 6.80653 11.5 8 11.5C9.19347 11.5 10.3381 11.9741 11.182 12.818C12.0259 13.6619 12.5 14.8065 12.5 16C12.5 16.1326 12.4473 16.2598 12.3536 16.3536C12.2598 16.4473 12.1326 16.5 12 16.5H4C3.86739 16.5 3.74021 16.4473 3.64645 16.3536C3.55268 16.2598 3.5 16.1326 3.5 16ZM17 1C17 0.867392 17.0527 0.740215 17.1464 0.646447C17.2402 0.552678 17.3674 0.5 17.5 0.5H19C19.5304 0.5 20.0391 0.710714 20.4142 1.08579C20.7893 1.46086 21 1.96957 21 2.5V4.5C21 5.03043 20.7893 5.53914 20.4142 5.91421C20.0391 6.28929 19.5304 6.5 19 6.5H17.5C17.3674 6.5 17.2402 6.44732 17.1464 6.35355C17.0527 6.25979 17 6.13261 17 6V1ZM18 1.5V5.5H19C19.2652 5.5 19.5196 5.39464 19.7071 5.20711C19.8946 5.01957 20 4.76522 20 4.5V2.5C20 2.23478 19.8946 1.98043 19.7071 1.79289C19.5196 1.60536 19.2652 1.5 19 1.5H18ZM17 8.5C17 8.36739 17.0527 8.24021 17.1464 8.14645C17.2402 8.05268 17.3674 8 17.5 8H19C19.5304 8 20.0391 8.21071 20.4142 8.58579C20.7893 8.96086 21 9.46957 21 10V12C21 12.5304 20.7893 13.0391 20.4142 13.4142C20.0391 13.7893 19.5304 14 19 14H17.5C17.3674 14 17.2402 13.9473 17.1464 13.8536C17.0527 13.7598 17 13.6326 17 13.5V8.5ZM18 9V13H19C19.2652 13 19.5196 12.8946 19.7071 12.7071C19.8946 12.5196 20 12.2652 20 12V10C20 9.73478 19.8946 9.48043 19.7071 9.29289C19.5196 9.10536 19.2652 9 19 9H18ZM17 16C17 15.8674 17.0527 15.7402 17.1464 15.6464C17.2402 15.5527 17.3674 15.5 17.5 15.5H19C19.5304 15.5 20.0391 15.7107 20.4142 16.0858C20.7893 16.4609 21 16.9696 21 17.5V19.5C21 20.0304 20.7893 20.5391 20.4142 20.9142C20.0391 21.2893 19.5304 21.5 19 21.5H17.5C17.3674 21.5 17.2402 21.4473 17.1464 21.3536C17.0527 21.2598 17 21.1326 17 21V16ZM18 16.5V20.5H19C19.2652 20.5 19.5196 20.3946 19.7071 20.2071C19.8946 20.0196 20 19.7652 20 19.5V17.5C20 17.2348 19.8946 16.9804 19.7071 16.7929C19.5196 16.6054 19.2652 16.5 19 16.5H18Z" fill="white"/>
</svg>
