<svg width="25" height="25" viewBox="0 0 25 25" fill="none" xmlns="http://www.w3.org/2000/svg">
<path d="M16.8506 3.76464C15.5078 2.74413 13.9941 2.39258 12.0752 2.39258C10.6201 2.39258 9.375 2.69042 8.38868 3.35448C6.93359 4.34569 6.25 6.01073 6.25 8.64258H10C10 7.93945 9.93165 7.18261 10.3418 6.5332C10.752 5.88379 11.3232 5.38573 12.3047 5.38573C13.3008 5.38573 13.8135 5.67381 14.2969 6.26952C14.707 6.77734 14.8632 7.38281 14.8632 8.02734C14.8632 8.58397 14.5801 9.09667 14.2432 9.56055C14.0576 9.83398 13.8135 10.0781 13.5059 10.3125C13.5059 10.3125 11.4795 11.5185 10.7666 12.6611C10.2344 13.5107 10.0439 14.5751 10 15.8496C9.99511 15.9423 10.0293 16.1328 10.3516 16.1328H13.3691C13.6523 16.1328 13.7109 15.918 13.7158 15.8301C13.7354 15.3662 13.7939 14.6533 13.877 14.3848C14.0381 13.877 14.3506 13.4326 14.8389 13.0518L15.8496 12.3535C16.7626 11.6406 17.4902 11.0596 17.8125 10.6006C18.3642 9.84863 18.75 8.92089 18.75 7.82225C18.75 6.03026 18.0908 4.70702 16.8506 3.76464ZM11.8164 18.0761C10.5518 18.0371 9.50683 18.916 9.4629 20.2881C9.42383 21.6651 10.415 22.5683 11.6846 22.6074C13.0029 22.6464 14.0234 21.7969 14.0625 20.4249C14.1016 19.0527 13.1348 18.1152 11.8164 18.0761Z" fill="white"/>
</svg>
