<svg width="205" height="110" viewBox="0 0 205 110" fill="none" xmlns="http://www.w3.org/2000/svg">
<g clip-path="url(#clip0_292_2)">
<path d="M132.951 16.4914H121.509V5.04886C121.509 2.26596 119.243 0 116.46 0H89.5364C86.7535 0 84.4875 2.26596 84.4875 5.04886V16.4914H73.0489C70.266 16.4914 68 18.7535 68 21.5403V48.4636C68 51.2465 70.266 53.5125 73.0489 53.5125H84.4914V64.955C84.4914 67.7379 86.7535 70.0039 89.5403 70.0039H116.464C119.247 70.0039 121.512 67.7379 121.512 64.955V53.5125H132.955C135.738 53.5125 138.004 51.2465 138.004 48.4636V21.5403C138 18.7535 135.734 16.4914 132.951 16.4914ZM132.613 48.1255H121.509V27.2576H116.125V64.613H89.8745V53.5086H110.738V48.1255H73.3831V21.8745H84.4875V42.7385H89.8706V5.38312H116.118V16.4875H95.2615V21.8706H132.617V48.1255H132.613Z" fill="url(#paint0_linear_292_2)"/>
</g>
<path d="M53.8376 105C53.6543 105 53.5043 104.942 53.3876 104.825C53.2709 104.708 53.2126 104.558 53.2126 104.375V88.125C53.2126 87.9417 53.2709 87.7917 53.3876 87.675C53.5043 87.5583 53.6543 87.5 53.8376 87.5H57.0626C57.2459 87.5 57.3959 87.5583 57.5126 87.675C57.6293 87.7917 57.6876 87.9417 57.6876 88.125V94.15H63.8626V88.125C63.8626 87.9417 63.9209 87.7917 64.0376 87.675C64.1543 87.5583 64.3043 87.5 64.4876 87.5H67.7126C67.8959 87.5 68.0459 87.5583 68.1626 87.675C68.2793 87.7917 68.3376 87.9417 68.3376 88.125V104.375C68.3376 104.558 68.2793 104.708 68.1626 104.825C68.0459 104.942 67.8959 105 67.7126 105H64.4876C64.3043 105 64.1543 104.942 64.0376 104.825C63.9209 104.708 63.8626 104.558 63.8626 104.375V98.15H57.6876V104.375C57.6876 104.558 57.6293 104.708 57.5126 104.825C57.3959 104.942 57.2459 105 57.0626 105H53.8376ZM77.4155 105.25C76.0155 105.25 74.8322 105.025 73.8655 104.575C72.9155 104.125 72.1822 103.483 71.6655 102.65C71.1655 101.8 70.8822 100.792 70.8155 99.625C70.7989 99.2917 70.7905 98.9167 70.7905 98.5C70.7905 98.0667 70.7989 97.6917 70.8155 97.375C70.8822 96.1917 71.1822 95.1833 71.7155 94.35C72.2489 93.5167 72.9905 92.875 73.9405 92.425C74.9072 91.975 76.0655 91.75 77.4155 91.75C78.7822 91.75 79.9405 91.975 80.8905 92.425C81.8572 92.875 82.6072 93.5167 83.1405 94.35C83.6739 95.1833 83.9739 96.1917 84.0405 97.375C84.0572 97.6917 84.0655 98.0667 84.0655 98.5C84.0655 98.9167 84.0572 99.2917 84.0405 99.625C83.9739 100.792 83.6822 101.8 83.1655 102.65C82.6655 103.483 81.9322 104.125 80.9655 104.575C80.0155 105.025 78.8322 105.25 77.4155 105.25ZM77.4155 102.2C78.1655 102.2 78.7072 101.975 79.0405 101.525C79.3905 101.075 79.5905 100.4 79.6405 99.5C79.6572 99.25 79.6655 98.9167 79.6655 98.5C79.6655 98.0833 79.6572 97.75 79.6405 97.5C79.5905 96.6167 79.3905 95.95 79.0405 95.5C78.7072 95.0333 78.1655 94.8 77.4155 94.8C76.6822 94.8 76.1405 95.0333 75.7905 95.5C75.4405 95.95 75.2489 96.6167 75.2155 97.5C75.1989 97.75 75.1905 98.0833 75.1905 98.5C75.1905 98.9167 75.1989 99.25 75.2155 99.5C75.2489 100.4 75.4405 101.075 75.7905 101.525C76.1405 101.975 76.6822 102.2 77.4155 102.2ZM91.5743 105.25C90.491 105.25 89.566 105.133 88.7993 104.9C88.0493 104.65 87.4326 104.35 86.9493 104C86.4826 103.65 86.1326 103.292 85.8993 102.925C85.666 102.542 85.541 102.217 85.5243 101.95C85.5076 101.767 85.566 101.617 85.6993 101.5C85.8326 101.367 85.9743 101.3 86.1243 101.3H88.9743C89.0243 101.3 89.066 101.308 89.0993 101.325C89.1326 101.342 89.1826 101.375 89.2493 101.425C89.466 101.542 89.6826 101.692 89.8993 101.875C90.116 102.042 90.366 102.192 90.6493 102.325C90.9326 102.458 91.2743 102.525 91.6743 102.525C92.141 102.525 92.5326 102.433 92.8493 102.25C93.166 102.067 93.3243 101.792 93.3243 101.425C93.3243 101.158 93.2493 100.942 93.0993 100.775C92.9493 100.592 92.641 100.417 92.1743 100.25C91.7243 100.083 91.041 99.9167 90.1243 99.75C89.2576 99.55 88.4993 99.2917 87.8493 98.975C87.1993 98.6417 86.6993 98.2167 86.3493 97.7C85.9993 97.1667 85.8243 96.525 85.8243 95.775C85.8243 95.1083 86.041 94.4667 86.4743 93.85C86.9076 93.2333 87.541 92.7333 88.3743 92.35C89.2076 91.95 90.2326 91.75 91.4493 91.75C92.416 91.75 93.2493 91.8667 93.9493 92.1C94.666 92.3167 95.266 92.6 95.7493 92.95C96.2493 93.3 96.6243 93.6583 96.8743 94.025C97.1243 94.3917 97.2576 94.725 97.2743 95.025C97.291 95.1917 97.241 95.3417 97.1243 95.475C97.0076 95.5917 96.8743 95.65 96.7243 95.65H94.1243C94.0576 95.65 93.991 95.6417 93.9243 95.625C93.8576 95.5917 93.7993 95.5583 93.7493 95.525C93.5493 95.425 93.3493 95.2917 93.1493 95.125C92.9493 94.9583 92.716 94.8083 92.4493 94.675C92.1826 94.5417 91.8493 94.475 91.4493 94.475C90.9993 94.475 90.6493 94.575 90.3993 94.775C90.1493 94.975 90.0243 95.2333 90.0243 95.55C90.0243 95.7667 90.091 95.9667 90.2243 96.15C90.3743 96.3333 90.666 96.5 91.0993 96.65C91.5493 96.8 92.241 96.9667 93.1743 97.15C94.3243 97.3333 95.241 97.6333 95.9243 98.05C96.6076 98.45 97.091 98.925 97.3743 99.475C97.6576 100.008 97.7993 100.575 97.7993 101.175C97.7993 101.975 97.5576 102.683 97.0743 103.3C96.6076 103.917 95.9076 104.4 94.9743 104.75C94.041 105.083 92.9076 105.25 91.5743 105.25ZM100.368 109.75C100.184 109.75 100.034 109.692 99.9177 109.575C99.801 109.458 99.7427 109.308 99.7427 109.125V92.625C99.7427 92.4417 99.801 92.2917 99.9177 92.175C100.034 92.0583 100.184 92 100.368 92H103.193C103.359 92 103.501 92.0583 103.618 92.175C103.751 92.2917 103.818 92.4417 103.818 92.625V93.55C104.201 93.0333 104.709 92.6083 105.343 92.275C105.976 91.925 106.759 91.75 107.693 91.75C108.526 91.75 109.259 91.8833 109.893 92.15C110.526 92.4 111.068 92.775 111.518 93.275C111.968 93.775 112.318 94.3833 112.568 95.1C112.834 95.8167 112.984 96.6417 113.018 97.575C113.034 97.9083 113.043 98.2167 113.043 98.5C113.043 98.7833 113.034 99.0917 113.018 99.425C112.984 100.325 112.843 101.133 112.593 101.85C112.343 102.567 111.993 103.175 111.543 103.675C111.093 104.175 110.543 104.567 109.893 104.85C109.259 105.117 108.526 105.25 107.693 105.25C106.876 105.25 106.159 105.108 105.543 104.825C104.943 104.525 104.443 104.108 104.043 103.575V109.125C104.043 109.308 103.984 109.458 103.868 109.575C103.751 109.692 103.601 109.75 103.418 109.75H100.368ZM106.343 101.9C106.909 101.9 107.351 101.783 107.668 101.55C107.984 101.317 108.209 101 108.343 100.6C108.493 100.2 108.584 99.7583 108.618 99.275C108.651 98.7583 108.651 98.2417 108.618 97.725C108.584 97.2417 108.493 96.8 108.343 96.4C108.209 96 107.984 95.6833 107.668 95.45C107.351 95.2167 106.909 95.1 106.343 95.1C105.793 95.1 105.351 95.225 105.018 95.475C104.684 95.7083 104.443 96.0167 104.293 96.4C104.143 96.7833 104.059 97.2 104.043 97.65C104.026 97.9667 104.018 98.275 104.018 98.575C104.018 98.875 104.026 99.1917 104.043 99.525C104.059 99.9417 104.151 100.333 104.318 100.7C104.484 101.05 104.734 101.342 105.068 101.575C105.401 101.792 105.826 101.9 106.343 101.9ZM115.839 105C115.656 105 115.506 104.942 115.389 104.825C115.272 104.708 115.214 104.558 115.214 104.375V92.625C115.214 92.4417 115.272 92.2917 115.389 92.175C115.506 92.0583 115.656 92 115.839 92H118.789C118.956 92 119.097 92.0583 119.214 92.175C119.347 92.2917 119.414 92.4417 119.414 92.625V104.375C119.414 104.558 119.347 104.708 119.214 104.825C119.097 104.942 118.956 105 118.789 105H115.839ZM115.814 90.125C115.631 90.125 115.481 90.0667 115.364 89.95C115.247 89.8333 115.189 89.6833 115.189 89.5V87.275C115.189 87.0917 115.247 86.9417 115.364 86.825C115.481 86.6917 115.631 86.625 115.814 86.625H118.789C118.972 86.625 119.122 86.6917 119.239 86.825C119.372 86.9417 119.439 87.0917 119.439 87.275V89.5C119.439 89.6833 119.372 89.8333 119.239 89.95C119.122 90.0667 118.972 90.125 118.789 90.125H115.814ZM128.693 105C127.626 105 126.701 104.833 125.918 104.5C125.151 104.15 124.56 103.617 124.143 102.9C123.726 102.167 123.518 101.225 123.518 100.075V95.275H121.568C121.385 95.275 121.226 95.2167 121.093 95.1C120.976 94.9833 120.918 94.8333 120.918 94.65V92.625C120.918 92.4417 120.976 92.2917 121.093 92.175C121.226 92.0583 121.385 92 121.568 92H123.518V87.875C123.518 87.6917 123.576 87.5417 123.693 87.425C123.826 87.3083 123.976 87.25 124.143 87.25H127.043C127.226 87.25 127.376 87.3083 127.493 87.425C127.61 87.5417 127.668 87.6917 127.668 87.875V92H130.793C130.976 92 131.126 92.0583 131.243 92.175C131.36 92.2917 131.418 92.4417 131.418 92.625V94.65C131.418 94.8333 131.36 94.9833 131.243 95.1C131.126 95.2167 130.976 95.275 130.793 95.275H127.668V99.725C127.668 100.292 127.776 100.742 127.993 101.075C128.21 101.408 128.576 101.575 129.093 101.575H131.018C131.201 101.575 131.351 101.633 131.468 101.75C131.585 101.867 131.643 102.017 131.643 102.2V104.375C131.643 104.558 131.585 104.708 131.468 104.825C131.351 104.942 131.201 105 131.018 105H128.693ZM137.313 105.25C136.413 105.25 135.605 105.083 134.888 104.75C134.188 104.4 133.63 103.933 133.213 103.35C132.796 102.767 132.588 102.108 132.588 101.375C132.588 100.192 133.071 99.2583 134.038 98.575C135.005 97.875 136.288 97.4 137.888 97.15L141.013 96.675V96.325C141.013 95.725 140.888 95.2667 140.638 94.95C140.388 94.6333 139.93 94.475 139.263 94.475C138.796 94.475 138.413 94.5667 138.113 94.75C137.83 94.9333 137.605 95.1833 137.438 95.5C137.288 95.7167 137.08 95.825 136.813 95.825H134.013C133.83 95.825 133.688 95.775 133.588 95.675C133.488 95.5583 133.446 95.425 133.463 95.275C133.463 94.975 133.571 94.6333 133.788 94.25C134.021 93.85 134.371 93.4583 134.838 93.075C135.305 92.6917 135.905 92.375 136.638 92.125C137.371 91.875 138.255 91.75 139.288 91.75C140.371 91.75 141.296 91.875 142.063 92.125C142.83 92.375 143.446 92.725 143.913 93.175C144.396 93.625 144.755 94.1583 144.988 94.775C145.221 95.375 145.338 96.0417 145.338 96.775V104.375C145.338 104.558 145.271 104.708 145.138 104.825C145.021 104.942 144.88 105 144.713 105H141.813C141.63 105 141.48 104.942 141.363 104.825C141.246 104.708 141.188 104.558 141.188 104.375V103.5C140.971 103.817 140.68 104.108 140.313 104.375C139.946 104.642 139.513 104.85 139.013 105C138.53 105.167 137.963 105.25 137.313 105.25ZM138.488 102.4C138.971 102.4 139.405 102.3 139.788 102.1C140.188 101.883 140.496 101.558 140.713 101.125C140.946 100.675 141.063 100.117 141.063 99.45V99.1L138.938 99.475C138.155 99.6083 137.58 99.8167 137.213 100.1C136.863 100.367 136.688 100.683 136.688 101.05C136.688 101.333 136.771 101.575 136.938 101.775C137.105 101.975 137.321 102.133 137.588 102.25C137.855 102.35 138.155 102.4 138.488 102.4ZM148.484 105C148.301 105 148.151 104.942 148.034 104.825C147.917 104.708 147.859 104.558 147.859 104.375V87.875C147.859 87.6917 147.917 87.5417 148.034 87.425C148.151 87.3083 148.301 87.25 148.484 87.25H151.434C151.617 87.25 151.767 87.3083 151.884 87.425C152.001 87.5417 152.059 87.6917 152.059 87.875V104.375C152.059 104.558 152.001 104.708 151.884 104.825C151.767 104.942 151.617 105 151.434 105H148.484Z" fill="#222222"/>
<defs>
<linearGradient id="paint0_linear_292_2" x1="68" y1="3.58994" x2="144.397" y2="18.4545" gradientUnits="userSpaceOnUse">
<stop stop-color="#0EBE7E"/>
<stop offset="1" stop-color="#07D9AD"/>
</linearGradient>
<clipPath id="clip0_292_2">
<rect width="70" height="70" fill="white" transform="translate(68)"/>
</clipPath>
</defs>
</svg>
