<svg width="25" height="25" viewBox="0 0 25 25" fill="none" xmlns="http://www.w3.org/2000/svg">
<path d="M21.7945 5.74805V13.9873C21.2434 19.956 16.0699 21.2219 13.386 24.0082C12.9005 24.5123 12.102 24.5123 11.6165 24.0082C8.93265 21.2219 3.75918 19.956 3.20801 13.9874V5.7481C3.20801 5.10881 3.70048 4.58799 4.33687 4.52666C7.21836 4.249 9.69589 3.19802 11.5917 1.02389C12.0693 0.476087 12.9332 0.476087 13.4109 1.02389C15.3066 3.19805 17.7842 4.249 20.6657 4.52666C21.3021 4.58794 21.7945 5.10876 21.7945 5.74805Z" fill="white"/>
<path d="M17.7964 12.4965C17.7964 14.2222 16.9718 15.7498 15.7 16.7149C14.8179 17.3924 13.7058 17.7887 12.5042 17.7887C11.3026 17.7887 10.1904 17.3924 9.30195 16.7149C8.03002 15.7498 7.20557 14.2222 7.20557 12.4965C7.20557 9.58192 9.57687 7.21069 12.5042 7.21069C15.4251 7.21069 17.7964 9.58192 17.7964 12.4965Z" fill="#B8C3CF"/>
<path d="M13.9634 11.5148C13.9634 12.3209 13.3059 12.9784 12.4998 12.9784C11.688 12.9784 11.0362 12.3209 11.0362 11.5148C11.0362 10.703 11.688 10.0513 12.4998 10.0513C13.3059 10.0513 13.9634 10.703 13.9634 11.5148ZM15.6988 16.7152C14.8167 17.3927 13.7046 17.789 12.503 17.789C11.3014 17.789 10.1893 17.3927 9.30078 16.7152C9.87603 15.4881 11.0904 14.6508 12.503 14.6508C13.9091 14.6508 15.1235 15.4881 15.6988 16.7152Z" fill="white"/>
<path d="M20.7016 4.14484C17.718 3.85745 15.4275 2.75411 13.699 0.771747C13.0689 0.0498234 11.9332 0.0483095 11.3017 0.771747C9.57324 2.75411 7.28272 3.85745 4.29908 4.14484C3.45805 4.22609 2.82373 4.91531 2.82373 5.74808L2.82525 14.0225C3.23267 18.4339 6.08414 20.3953 8.59971 22.1257C9.62085 22.8282 10.5858 23.4917 11.3396 24.2743C11.9769 24.9357 13.0239 24.9353 13.6616 24.2743C14.415 23.4917 15.3799 22.8282 16.4011 22.1257C18.9167 20.3953 21.7681 18.4339 22.177 13.9873V5.74808C22.177 4.91525 21.5426 4.22609 20.7016 4.14484ZM15.9667 21.4938C14.9122 22.219 13.9165 22.9038 13.1092 23.7422C12.7849 24.0785 12.2154 24.0785 11.8919 23.7422C11.0841 22.9038 10.0885 22.2189 9.03403 21.4938C6.54131 19.779 3.96319 18.0058 3.59063 13.9873V5.74808C3.59063 5.31237 3.92691 4.95123 4.37248 4.90838C7.56055 4.60115 10.0162 3.413 11.8799 1.2758C12.2047 0.903045 12.7967 0.903828 13.1208 1.2758C14.9845 3.413 17.4401 4.60115 20.6282 4.90838C21.0738 4.95123 21.4101 5.31243 21.4101 5.74808L21.4116 13.9522C21.0375 18.0058 18.4594 19.779 15.9667 21.4938Z" fill="white"/>
<path d="M12.5032 6.82739C9.37015 6.82739 6.82129 9.37071 6.82129 12.4966C6.82129 15.6711 9.39091 18.1722 12.5032 18.1722C15.6396 18.1722 18.1792 15.6401 18.1792 12.4966C18.1792 9.37071 15.6329 6.82739 12.5032 6.82739ZM9.80335 16.5988C10.376 15.6289 11.3809 15.0341 12.5032 15.0341C13.6225 15.0341 14.6255 15.6292 15.1976 16.5996C14.406 17.1263 13.4822 17.4053 12.5032 17.4053C11.5264 17.4053 10.6007 17.1263 9.80335 16.5988ZM15.8063 16.1204C15.0885 14.9681 13.8643 14.2672 12.5032 14.2672C11.1388 14.2672 9.91235 14.9682 9.19414 16.1205C8.17104 15.1911 7.58814 13.8959 7.58814 12.4966C7.58814 9.79345 9.79292 7.59429 12.5032 7.59429C15.2101 7.59429 17.4123 9.79345 17.4123 12.4966C17.4123 13.8953 16.8299 15.19 15.8063 16.1204Z" fill="white"/>
<path d="M12.5 9.66748C11.4815 9.66748 10.6528 10.4959 10.6528 11.5144C10.6528 12.5329 11.4815 13.3614 12.5 13.3614C13.5185 13.3614 14.3472 12.5329 14.3472 11.5144C14.3472 10.4959 13.5185 9.66748 12.5 9.66748ZM12.5 12.5946C11.9042 12.5946 11.4197 12.1101 11.4197 11.5144C11.4197 10.9188 11.9042 10.4343 12.5 10.4343C13.0958 10.4343 13.5803 10.9188 13.5803 11.5144C13.5803 12.1101 13.0958 12.5946 12.5 12.5946Z" fill="white"/>
</svg>
