<svg width="25" height="25" viewBox="0 0 25 25" fill="none" xmlns="http://www.w3.org/2000/svg">
<g clip-path="url(#clip0_4307_254)">
<path d="M20.8327 20.8335V4.16683C20.8327 3.021 19.8952 2.0835 18.7493 2.0835H4.16602C5.31184 2.0835 6.24934 3.021 6.24934 4.16683V20.8335C6.24934 21.9793 7.18684 22.9168 8.33266 22.9168C9.47852 22.9168 10.416 21.9793 10.416 20.8335H22.916" fill="#E2E0E7"/>
<path d="M22.9173 20.8335H10.4173C10.4173 21.9793 9.47984 22.9168 8.33398 22.9168H20.834C21.9798 22.9168 22.9173 21.9793 22.9173 20.8335Z" fill="#E2E0E7"/>
<path d="M20.834 4.6875C20.6959 4.6875 20.5634 4.63262 20.4657 4.53494C20.368 4.43729 20.3132 4.30479 20.3132 4.16668C20.3132 3.30521 19.6121 2.60417 18.7507 2.60417C18.6125 2.60417 18.4801 2.54929 18.3824 2.45162C18.2847 2.35394 18.2298 2.22147 18.2298 2.08333C18.2298 1.9452 18.2847 1.81272 18.3824 1.71505C18.4801 1.61737 18.6125 1.5625 18.7507 1.5625C20.1866 1.5625 21.3548 2.73073 21.3548 4.16668C21.3548 4.30479 21.3 4.43729 21.2023 4.53494C21.1046 4.63262 20.9721 4.6875 20.834 4.6875ZM6.25066 4.6875C6.11252 4.6875 5.98005 4.63262 5.88237 4.53494C5.78472 4.43729 5.72984 4.30479 5.72984 4.16668C5.72984 3.30521 5.0288 2.60417 4.16734 2.60417C4.0292 2.60417 3.89673 2.54929 3.79905 2.45162C3.70136 2.35394 3.64648 2.22147 3.64648 2.08333C3.64648 1.9452 3.70136 1.81272 3.79905 1.71505C3.89673 1.61737 4.0292 1.5625 4.16734 1.5625C5.60325 1.5625 6.77148 2.73073 6.77148 4.16668C6.77148 4.30479 6.71664 4.43729 6.61895 4.53494C6.52127 4.63262 6.3888 4.6875 6.25066 4.6875Z" fill="white"/>
<path d="M2.08333 4.6875C1.9452 4.6875 1.81272 4.63262 1.71505 4.53494C1.61737 4.43729 1.5625 4.30479 1.5625 4.16668C1.5625 2.73073 2.73073 1.5625 4.16668 1.5625C4.30479 1.5625 4.43729 1.61737 4.53494 1.71505C4.63262 1.81272 4.6875 1.9452 4.6875 2.08333C4.6875 2.22147 4.63262 2.35394 4.53494 2.45162C4.43729 2.54929 4.30479 2.60417 4.16668 2.60417C3.30521 2.60417 2.60417 3.30521 2.60417 4.16668C2.60417 4.30479 2.54929 4.43729 2.45162 4.53494C2.35394 4.63262 2.22147 4.6875 2.08333 4.6875Z" fill="white"/>
<path d="M6.25065 4.16683H2.08398C2.08398 3.021 3.02148 2.0835 4.16733 2.0835C5.31315 2.0835 6.25065 3.021 6.25065 4.16683Z" fill="#E2E0E7"/>
<path d="M10.9375 4.68767H15.625C15.7631 4.68767 15.8956 4.6328 15.9933 4.53511C16.0909 4.43743 16.1458 4.30496 16.1458 4.16682C16.1458 4.02868 16.0909 3.89621 15.9933 3.79853C15.8956 3.70087 15.7631 3.646 15.625 3.646H10.9375C10.7994 3.646 10.6669 3.70087 10.5692 3.79853C10.4715 3.89621 10.4167 4.02868 10.4167 4.16682C10.4167 4.30496 10.4715 4.43743 10.5692 4.53511C10.6669 4.6328 10.7994 4.68767 10.9375 4.68767ZM10.9375 18.7502C10.9375 18.612 10.8826 18.4796 10.7849 18.3819C10.6873 18.2842 10.5548 18.2293 10.4167 18.2293H8.33332C8.19521 18.2293 8.06271 18.2842 7.96506 18.3819C7.86738 18.4796 7.8125 18.612 7.8125 18.7502C7.8125 18.8883 7.86738 19.0208 7.96506 19.1184C8.06271 19.2161 8.19521 19.271 8.33332 19.271H10.4167C10.5548 19.271 10.6873 19.2161 10.7849 19.1184C10.8826 19.0208 10.9375 18.8883 10.9375 18.7502ZM18.75 18.2293H16.6667C16.5285 18.2293 16.3961 18.2842 16.2984 18.3819C16.2007 18.4796 16.1458 18.612 16.1458 18.7502C16.1458 18.8883 16.2007 19.0208 16.2984 19.1184C16.3961 19.2161 16.5285 19.271 16.6667 19.271H18.75C18.8881 19.271 19.0206 19.2161 19.1183 19.1184C19.2159 19.0208 19.2708 18.8883 19.2708 18.7502C19.2708 18.612 19.2159 18.4796 19.1183 18.3819C19.0206 18.2842 18.8881 18.2293 18.75 18.2293ZM8.33332 6.771H18.75C18.8881 6.771 19.0206 6.71612 19.1183 6.61843C19.2159 6.52078 19.2708 6.38828 19.2708 6.25017C19.2708 6.11203 19.2159 5.97956 19.1183 5.88188C19.0206 5.7842 18.8881 5.72932 18.75 5.72932H8.33332C8.19521 5.72932 8.06271 5.7842 7.96506 5.88188C7.86738 5.97956 7.8125 6.11203 7.8125 6.25017C7.8125 6.38828 7.86738 6.52078 7.96506 6.61843C8.06271 6.71612 8.19521 6.771 8.33332 6.771ZM8.33332 8.85432H18.75C18.8881 8.85432 19.0206 8.79944 19.1183 8.70179C19.2159 8.60411 19.2708 8.47164 19.2708 8.3335C19.2708 8.19536 19.2159 8.06289 19.1183 7.9652C19.0206 7.86752 18.8881 7.81267 18.75 7.81267H8.33332C8.19521 7.81267 8.06271 7.86752 7.96506 7.9652C7.86738 8.06289 7.8125 8.19536 7.8125 8.3335C7.8125 8.47164 7.86738 8.60411 7.96506 8.70179C8.06271 8.79944 8.19521 8.85432 8.33332 8.85432ZM8.33332 10.9377H18.75C18.8881 10.9377 19.0206 10.8828 19.1183 10.7851C19.2159 10.6874 19.2708 10.555 19.2708 10.4168C19.2708 10.2787 19.2159 10.1462 19.1183 10.0485C19.0206 9.95087 18.8881 9.896 18.75 9.896H8.33332C8.19521 9.896 8.06271 9.95087 7.96506 10.0485C7.86738 10.1462 7.8125 10.2787 7.8125 10.4168C7.8125 10.555 7.86738 10.6874 7.96506 10.7851C8.06271 10.8828 8.19521 10.9377 8.33332 10.9377ZM8.33332 13.021H18.75C18.8881 13.021 19.0206 12.9661 19.1183 12.8684C19.2159 12.7708 19.2708 12.6383 19.2708 12.5002C19.2708 12.362 19.2159 12.2296 19.1183 12.1319C19.0206 12.0342 18.8881 11.9793 18.75 11.9793H8.33332C8.19521 11.9793 8.06271 12.0342 7.96506 12.1319C7.86738 12.2296 7.8125 12.362 7.8125 12.5002C7.8125 12.6383 7.86738 12.7708 7.96506 12.8684C8.06271 12.9661 8.19521 13.021 8.33332 13.021ZM8.33332 15.1043H18.75C18.8881 15.1043 19.0206 15.0494 19.1183 14.9518C19.2159 14.8541 19.2708 14.7216 19.2708 14.5835C19.2708 14.4454 19.2159 14.3129 19.1183 14.2152C19.0206 14.1175 18.8881 14.0627 18.75 14.0627H8.33332C8.19521 14.0627 8.06271 14.1175 7.96506 14.2152C7.86738 14.3129 7.8125 14.4454 7.8125 14.5835C7.8125 14.7216 7.86738 14.8541 7.96506 14.9518C8.06271 15.0494 8.19521 15.1043 8.33332 15.1043ZM8.33332 17.1877H18.75C18.8881 17.1877 19.0206 17.1328 19.1183 17.0351C19.2159 16.9374 19.2708 16.805 19.2708 16.6668C19.2708 16.5287 19.2159 16.3962 19.1183 16.2985C19.0206 16.2009 18.8881 16.146 18.75 16.146H8.33332C8.19521 16.146 8.06271 16.2009 7.96506 16.2985C7.86738 16.3962 7.8125 16.5287 7.8125 16.6668C7.8125 16.805 7.86738 16.9374 7.96506 17.0351C8.06271 17.1328 8.19521 17.1877 8.33332 17.1877Z" fill="white"/>
</g>
<defs>
<clipPath id="clip0_4307_254">
<rect width="25" height="25" fill="white"/>
</clipPath>
</defs>
</svg>
