<svg width="49" height="45" viewBox="0 0 49 45" fill="none" xmlns="http://www.w3.org/2000/svg">
<path d="M25.6527 10.457C25.5576 10.7977 25.7373 11.1642 26.0693 11.2699L26.1415 11.2929L26.1449 11.2887C26.4563 11.3454 26.7567 11.1438 26.8446 10.8271C27.6617 7.89671 30.233 5.85693 33.09 5.85693C33.4398 5.85693 33.7113 5.55636 33.7113 5.20131C33.7113 4.84625 33.4398 4.54569 33.09 4.54569C29.5608 4.54569 26.6019 7.05295 25.6527 10.457ZM25.6527 10.457L25.7602 10.4871M25.6527 10.457C25.6527 10.4571 25.6527 10.4571 25.6527 10.4571L25.7602 10.4871M25.7602 10.4871C25.6797 10.775 25.8333 11.0778 26.1032 11.1637L26.1032 11.1636C26.3741 11.2499 26.6574 11.0847 26.7371 10.7971C27.5666 7.82262 30.1789 5.74539 33.09 5.74539C33.3715 5.74539 33.5998 5.50172 33.5998 5.20131C33.5998 4.90089 33.3715 4.65723 33.09 4.65723C29.6166 4.65723 26.6974 7.12544 25.7602 10.4871Z" fill="#0EBE7F" stroke="#F9FFF9" stroke-width="0.223065"/>
<path d="M40.2265 31.8614H37.1679C36.8864 31.8614 36.6581 31.6178 36.6581 31.3173C36.6581 31.0169 36.8864 30.7733 37.1679 30.7733H40.2265C44.4426 30.7733 47.873 27.112 47.873 22.6121C47.873 18.1122 44.4426 14.451 40.2265 14.451H40.1529C40.0051 14.451 39.8645 14.3826 39.7677 14.2632C39.6708 14.1439 39.6271 13.9858 39.6482 13.8295C39.6938 13.4907 39.7167 13.1502 39.7167 12.8187C39.7167 8.91888 36.7436 5.74569 33.0896 5.74569C31.6681 5.74569 30.3124 6.21981 29.1691 7.11714C28.9178 7.31417 28.561 7.22673 28.4157 6.93176C25.1776 0.350786 16.7199 -0.532972 12.335 5.1919C10.4879 7.6037 9.76209 10.7411 10.3437 13.7989C10.4077 14.1366 10.1656 14.4514 9.84408 14.4514H9.63981C5.42366 14.4514 1.99323 18.1126 1.99323 22.6125C1.99323 27.1124 5.42366 30.7737 9.63981 30.7737H12.6984C12.9799 30.7737 13.2082 31.0173 13.2082 31.3178C13.2082 31.6182 12.9799 31.8618 12.6984 31.8618H9.63981C4.86138 31.8618 0.973633 27.7125 0.973633 22.6125C0.973633 17.6556 4.64615 13.5967 9.23963 13.3729C8.80815 10.2005 9.63326 7.00053 11.5456 4.50326C16.2402 -1.62653 25.2371 -0.939463 29.0403 5.8957C30.2536 5.08386 31.642 4.65797 33.0894 4.65797C37.5164 4.65797 41.0244 8.6795 40.7175 13.3779C45.2686 13.6504 48.8924 17.6878 48.8924 22.6121C48.8924 27.7125 45.0049 31.8614 40.2265 31.8614Z" fill="#0EBE7F"/>
<path d="M12.0086 31.01C12.0086 38.5649 17.769 44.7237 24.8646 44.7237C31.9603 44.7237 37.7206 38.5648 37.7206 31.01C37.7206 23.4552 31.9603 17.2964 24.8646 17.2964C17.7689 17.2964 12.0086 23.4553 12.0086 31.01ZM13.2514 31.01C13.2514 24.1648 18.4679 18.6079 24.8646 18.6079C31.2611 18.6079 36.4777 24.1647 36.4777 31.01C36.4777 37.8553 31.2611 43.4122 24.8646 43.4122C18.468 43.4122 13.2514 37.8554 13.2514 31.01Z" fill="#0EBE7F" stroke="#F9FFF9" stroke-width="0.223065"/>
<path d="M24.6131 36.4859C24.6131 36.7604 24.8234 36.9957 25.0978 36.9957C25.3722 36.9957 25.5826 36.7608 25.5826 36.4859V26.1293C25.5826 25.8547 25.3722 25.6194 25.0978 25.6194C24.8234 25.6194 24.6131 25.8547 24.6131 26.1293V36.4859Z" fill="#0EBE7F" stroke="#0EBE7F" stroke-width="0.223065"/>
<path d="M25.0977 26.8565L27.7381 29.6746C27.832 29.7748 27.9572 29.8265 28.0834 29.8265L25.0977 26.8565ZM25.0977 26.8565L22.4574 29.6745L25.0977 26.8565ZM21.7667 29.6746C21.9566 29.8772 22.2677 29.8773 22.4573 29.6746L24.8338 25.8484L24.7524 25.7722L24.7523 25.7722L21.7667 28.9587C21.5807 29.1573 21.5807 29.4761 21.7667 29.6746Z" fill="#0EBE7F" stroke="#0EBE7F" stroke-width="0.223065"/>
</svg>
