<svg width="18" height="18" viewBox="0 0 18 18" fill="none" xmlns="http://www.w3.org/2000/svg">
<path d="M15.3227 10.1064C14.3187 9.10386 12.5731 9.10386 11.5691 10.1064L10.9541 10.7205C10.6284 11.0457 10.0858 11.0457 9.76014 10.7205L7.2909 8.25489C6.96528 7.92975 6.96528 7.38786 7.2909 7.06272L7.90595 6.44857C8.93706 5.41897 8.93706 3.73909 7.90595 2.70045L6.05175 0.848971C5.04777 -0.153537 3.30212 -0.153537 2.29814 0.848971L0.778603 2.36628C0.145464 2.99849 -0.125882 3.90166 0.0550153 4.78675C0.66102 7.80331 2.33432 10.8108 4.76738 13.2403C7.20045 15.6698 10.2033 17.3407 13.2334 17.9458C13.4143 17.9819 13.5861 18 13.767 18C14.4725 18 15.1509 17.7291 15.6483 17.2233L17.1679 15.706C17.6653 15.2092 17.9457 14.5409 17.9457 13.8364C17.9457 13.132 17.6653 12.4636 17.1679 11.9669L15.3137 10.1154L15.3227 10.1064ZM15.9016 14.4235L14.3821 15.9408C14.1831 16.1395 13.8846 16.2298 13.5952 16.1666C10.9179 15.6337 8.24061 14.1345 6.05175 11.9488C3.8629 9.76317 2.3705 7.09885 1.82781 4.42549C1.77354 4.13648 1.85494 3.84747 2.05393 3.63974L3.57346 2.12243C3.73627 1.95986 3.9443 1.87857 4.17042 1.87857C4.39654 1.87857 4.60458 1.96889 4.76738 2.12243L6.62158 3.97391C6.94719 4.29905 6.94719 4.84094 6.62158 5.16608L6.00653 5.78023C4.97541 6.80983 4.97541 8.48971 6.00653 9.52835L8.47577 11.994C9.50688 13.0236 11.1892 13.0236 12.2294 11.994L12.8444 11.3798C13.17 11.0547 13.7037 11.0547 14.0384 11.3798L15.8926 13.2313C16.0554 13.3848 16.1368 13.6016 16.1368 13.8274C16.1368 14.0532 16.0463 14.2609 15.8926 14.4235H15.9016ZM11.6686 0.903161C11.6686 0.406422 12.0756 0 12.5731 0C15.5669 0 18 2.4295 18 5.41897C18 5.9157 17.593 6.32213 17.0955 6.32213C16.598 6.32213 16.191 5.9157 16.191 5.41897C16.191 3.42298 14.572 1.80632 12.5731 1.80632C12.0756 1.80632 11.6686 1.3999 11.6686 0.903161ZM11.6686 4.51581C11.6686 4.01907 12.0756 3.61264 12.5731 3.61264C13.568 3.61264 14.3821 4.42549 14.3821 5.41897C14.3821 5.9157 13.975 6.32213 13.4776 6.32213C12.9801 6.32213 12.5731 5.9157 12.5731 5.41897C12.0756 5.41897 11.6686 5.01254 11.6686 4.51581Z" fill="#A1A8B0"/>
</svg>
