<svg width="24" height="24" viewBox="0 0 24 24" fill="none" xmlns="http://www.w3.org/2000/svg">
<path fill-rule="evenodd" clip-rule="evenodd" d="M5.62173 18.2944C5.0488 18.6461 4.66667 19.2785 4.66667 20C4.66667 21.1046 5.56207 22 6.66667 22C7.77127 22 8.66667 21.1046 8.66667 20C8.66667 18.984 7.90907 18.1449 6.92793 18.0169C6.90607 17.9386 6.88327 17.8483 6.86007 17.7471C6.7802 17.3981 6.704 16.9555 6.64727 16.5008C6.5904 16.0453 6.55513 15.5936 6.5528 15.225C6.55193 15.0899 6.5556 14.9721 6.56307 14.8734C6.81953 14.7998 7.07673 14.7335 7.33333 14.6751C7.62753 14.6081 7.80167 14.9553 7.94273 15.2367C7.9624 15.2759 7.9814 15.3138 8 15.3491H10.7093C11.3198 15.349 11.6216 15.3491 11.9269 15.3491C12.2251 15.3492 12.5271 15.3493 13.1234 15.3491H15.8329C15.985 15.0601 16.3315 14.5987 16.6667 14.6751C17.0242 14.7565 17.383 14.8532 17.7393 14.9637L17.7371 14.9648C17.7363 14.9633 17.7363 14.9635 17.7371 14.9658C17.7403 14.9751 17.7549 15.0187 17.7695 15.1133C17.7861 15.2209 17.7976 15.3607 17.8023 15.5291C17.8118 15.8653 17.7929 16.274 17.7531 16.6858C17.7133 17.0971 17.6541 17.4953 17.5874 17.8096C17.5727 17.8792 17.5579 17.9427 17.5435 18H16.6667C16.4141 18 16.1833 18.1427 16.0704 18.3685L15.4037 19.7019C15.3574 19.7944 15.3333 19.8965 15.3333 20V21.3333C15.3333 21.7015 15.6318 22 16 22H17.3333V20.6667H16.6667V20.1574L17.0787 19.3333H18.9213L19.3333 20.1574V20.6667H18.6667V22H20C20.3682 22 20.6667 21.7015 20.6667 21.3333V20C20.6667 19.8965 20.6426 19.7944 20.5963 19.7019L19.9296 18.3685C19.8167 18.1427 19.5859 18 19.3333 18H18.9095C18.9807 17.6449 19.04 17.2299 19.0802 16.8142C19.1237 16.3649 19.1465 15.8985 19.1351 15.4917L19.1346 15.4734C21.793 16.5966 24 18.4441 24 20.3799V24H0V20.3799C0 18.3584 2.40662 16.4333 5.22067 15.3287C5.22827 15.7431 5.26753 16.2121 5.32413 16.6659C5.38527 17.1557 5.4686 17.6435 5.5604 18.0446C5.58007 18.1305 5.60053 18.2142 5.62173 18.2944ZM6.66667 20.6765C7.0256 20.6765 7.33333 20.3828 7.33333 20C7.33333 19.6172 7.0256 19.3235 6.66667 19.3235C6.30773 19.3235 6 19.6172 6 20C6 20.3828 6.30773 20.6765 6.66667 20.6765ZM12 12C14.9455 12 17.3333 9.6122 17.3333 6.66667C17.3333 3.72113 14.9455 1.33333 12 1.33333C9.05447 1.33333 6.66667 3.72113 6.66667 6.66667C6.66667 9.6122 9.05447 12 12 12ZM12 13.3333C15.6819 13.3333 18.6667 10.3485 18.6667 6.66667C18.6667 2.9848 15.6819 0 12 0C8.31813 0 5.33333 2.9848 5.33333 6.66667C5.33333 10.3485 8.31813 13.3333 12 13.3333Z" fill="white"/>
</svg>
