<svg width="17" height="19" viewBox="0 0 17 19" fill="none" xmlns="http://www.w3.org/2000/svg">
<path d="M8.5 2.83109C5.89673 2.8445 3.77927 4.94856 3.77927 7.56523V11.3411C3.77927 11.5857 3.67205 11.827 3.49448 12.0012L1.88963 13.6194V14.1722H15.1104V13.6194L13.5055 12.0012C13.3313 11.827 13.2207 11.5824 13.2341 11.3411V7.56523C13.2207 4.94856 11.1033 2.8445 8.5 2.83109ZM16.0686 16.0652H0.944817C0.418802 16.0652 0 15.6464 0 15.1204V13.2308C0 12.9761 0.0938115 12.7316 0.271383 12.5573L1.88963 10.9525V7.56523C1.88963 4.58336 3.88648 1.98009 6.74773 1.18269C7.13973 0.224473 8.23197 -0.247935 9.20359 0.130661C9.6894 0.331686 10.0546 0.710283 10.2556 1.18269C13.1169 1.98009 15.1137 4.58336 15.1137 7.56523V10.9525L16.7286 12.5573C16.9028 12.7316 17 12.9761 17 13.2308V15.1204C17 15.633 16.5812 16.0652 16.0686 16.0652ZM8.5 18.8997C7.30055 18.8997 6.23512 18.1458 5.84312 17.01H11.1703C10.7682 18.1425 9.69945 18.8997 8.5 18.8997Z" fill="white"/>
</svg>
