<svg width="24" height="19" viewBox="0 0 24 19" fill="none" xmlns="http://www.w3.org/2000/svg">
<path d="M24 5.4052H14.3712V2.6207H24V5.4052ZM7.18562 9.50003C4.88622 9.50003 3.01797 7.53448 3.01797 4.91379V4.75004C3.01797 2.12935 4.7425 0 7.0419 0H7.18562C9.48502 0 11.3533 1.96555 11.3533 4.58623V4.75004C11.3533 7.37073 9.62874 9.50003 7.32934 9.50003H7.18562ZM24 10.8103H15.6647V8.0259H24V10.8103ZM24 16.3793H16.8144V13.5949H24V16.3793ZM0 19V17.6897C0 13.9224 2.73055 10.8103 6.03594 10.8103H8.47903C11.7844 10.8103 14.515 13.9224 14.515 17.6897V19H0Z" fill="white"/>
</svg>
