<svg width="20" height="21" viewBox="0 0 20 21" fill="none" xmlns="http://www.w3.org/2000/svg">
<path d="M10 20.1698C4.76132 20.1698 0.5 15.7301 0.5 10.2721C0.5 4.81402 4.76132 0.374268 10 0.374268C15.2387 0.374268 19.5 4.81402 19.5 10.2721C19.5 15.7301 15.2379 20.1698 10 20.1698ZM10 1.95791C5.5996 1.95791 2.02 5.6874 2.02 10.2721C2.02 14.8567 5.5996 18.5862 10 18.5862C14.4004 18.5862 17.98 14.8567 17.98 10.2721C17.98 5.6874 14.3996 1.95791 10 1.95791ZM9.9392 11.0005H5.06C4.85844 11.0005 4.66513 10.9171 4.5226 10.7686C4.38007 10.6201 4.3 10.4187 4.3 10.2087C4.3 9.9987 4.38007 9.7973 4.5226 9.6488C4.66513 9.50031 4.85844 9.41688 5.06 9.41688H9.1792V3.54156C9.1792 3.33155 9.25927 3.13015 9.4018 2.98166C9.54433 2.83316 9.73764 2.74974 9.9392 2.74974C10.1408 2.74974 10.3341 2.83316 10.4766 2.98166C10.6191 3.13015 10.6992 3.33155 10.6992 3.54156V10.2087C10.6992 10.4187 10.6191 10.6201 10.4766 10.7686C10.3341 10.9171 10.1408 11.0005 9.9392 11.0005Z" fill="#878787"/>
</svg>
