<svg width="37" height="33" viewBox="0 0 37 33" fill="none" xmlns="http://www.w3.org/2000/svg">
<g filter="url(#filter0_d_4418_312)">
<rect x="5" y="1" width="26.8333" height="23.2593" rx="7" fill="white"/>
<rect x="4.75" y="0.75" width="27.3333" height="23.7593" rx="7.25" stroke="#A1A8B0" stroke-width="0.5"/>
<path d="M11.3797 7H19.1203C20.4805 7 21.5833 8.10268 21.5833 9.46288V15.7964C21.5833 17.1566 20.4805 18.2593 19.1203 18.2593H11.3797C10.0194 18.2593 8.91675 17.1566 8.91675 15.7964V9.46288C8.91675 8.10268 10.0194 7 11.3797 7ZM11.3797 8.40741C10.7967 8.40741 10.3241 8.87996 10.3241 9.46291V15.7964C10.3241 16.3793 10.7967 16.8519 11.3797 16.8519H19.1203C19.7033 16.8519 20.1759 16.3793 20.1759 15.7964V9.46291C20.1759 8.87996 19.7033 8.40741 19.1203 8.40741H11.3797ZM23.4857 9.13614L25.8314 8.47836C26.7046 8.23354 27.6109 8.74279 27.8558 9.61602C27.8962 9.76032 27.9167 9.90949 27.9167 10.0593V15.2002C27.9167 16.107 27.1816 16.8422 26.2748 16.8422C26.1249 16.8422 25.9757 16.8216 25.8314 16.7812L23.4857 16.1233C22.777 15.9246 22.2872 15.2785 22.2872 14.5424V10.7171C22.2872 9.98112 22.777 9.33498 23.4857 9.13619L23.4857 9.13614ZM23.8658 10.4913C23.7645 10.5197 23.6946 10.612 23.6946 10.7171V14.5423C23.6946 14.6475 23.7645 14.7399 23.8658 14.7682L26.2114 15.4261C26.2321 15.4318 26.2534 15.4348 26.2748 15.4348C26.4043 15.4348 26.5094 15.3297 26.5094 15.2001V10.0593C26.5094 10.0379 26.5064 10.0165 26.5007 9.99598C26.4657 9.87118 26.3362 9.79845 26.2114 9.83344L23.8658 10.4913Z" fill="#A1A8B0"/>
</g>
<defs>
<filter id="filter0_d_4418_312" x="0.5" y="0.5" width="35.8333" height="32.2593" filterUnits="userSpaceOnUse" color-interpolation-filters="sRGB">
<feFlood flood-opacity="0" result="BackgroundImageFix"/>
<feColorMatrix in="SourceAlpha" type="matrix" values="0 0 0 0 0 0 0 0 0 0 0 0 0 0 0 0 0 0 127 0" result="hardAlpha"/>
<feOffset dy="4"/>
<feGaussianBlur stdDeviation="2"/>
<feComposite in2="hardAlpha" operator="out"/>
<feColorMatrix type="matrix" values="0 0 0 0 0 0 0 0 0 0 0 0 0 0 0 0 0 0 0.25 0"/>
<feBlend mode="normal" in2="BackgroundImageFix" result="effect1_dropShadow_4418_312"/>
<feBlend mode="normal" in="SourceGraphic" in2="effect1_dropShadow_4418_312" result="shape"/>
</filter>
</defs>
</svg>
